<?xml version="1.0" standalone="no"?><!DOCTYPE svg PUBLIC "-//W3C//DTD SVG 1.1//EN" "http://www.w3.org/Graphics/SVG/1.1/DTD/svg11.dtd"><svg t="1581081696808" class="icon" viewBox="0 0 1024 1024" version="1.1" xmlns="http://www.w3.org/2000/svg" p-id="3678" xmlns:xlink="http://www.w3.org/1999/xlink" width="200" height="200"><defs><style type="text/css"></style></defs><path d="M887.466667 1024h-68.266667a34.133333 34.133333 0 0 1-34.133333-34.133333v-409.6a34.133333 34.133333 0 0 1 34.133333-34.133334h68.266667a34.133333 34.133333 0 0 1 34.133333 34.133334v409.6a34.133333 34.133333 0 0 1-34.133333 34.133333zM512 1024a68.266667 68.266667 0 0 1-68.266667-68.266667V341.333333a68.266667 68.266667 0 0 1 136.533334 0v614.4a68.266667 68.266667 0 0 1-68.266667 68.266667z m-341.333333 0a68.266667 68.266667 0 0 1-68.266667-68.266667V68.266667a68.266667 68.266667 0 0 1 136.533333 0v887.466666a68.266667 68.266667 0 0 1-68.266666 68.266667z" p-id="3679"></path></svg>