<?xml version="1.0" encoding="UTF-8"?>
<svg width="238px" height="179px" viewBox="0 0 238 179" version="1.1" xmlns="http://www.w3.org/2000/svg" xmlns:xlink="http://www.w3.org/1999/xlink">
    <!-- Generator: Sketch 64 (93537) - https://sketch.com -->
    <title>专题管控系统</title>
    <desc>Created with Sketch.</desc>
    <defs>
        <linearGradient x1="1.03894327%" y1="50.6809746%" x2="100%" y2="50%" id="linearGradient-1">
            <stop stop-color="#82EDFF" offset="0%"></stop>
            <stop stop-color="#41C8FF" offset="100%"></stop>
        </linearGradient>
        <linearGradient x1="11.8077181%" y1="46.1984898%" x2="101.643668%" y2="50%" id="linearGradient-2">
            <stop stop-color="#0D9EE0" offset="0%"></stop>
            <stop stop-color="#1278BD" offset="100%"></stop>
        </linearGradient>
        <linearGradient x1="11.8077181%" y1="46.1984898%" x2="101.643668%" y2="50%" id="linearGradient-3">
            <stop stop-color="#33CAE4" offset="0%"></stop>
            <stop stop-color="#27A7E1" offset="100%"></stop>
        </linearGradient>
        <path d="M11.4121008,15.1008939 C10.5993277,15.1008939 9.78857143,14.8917318 9.06453782,14.475419 L0.275294118,9.41530726 L0.812773109,8.48815642 L9.60201681,13.5482682 C10.7173109,14.1918436 12.1068908,14.1898324 13.2211765,13.5482682 L36.3357983,0.244357542 L36.8732773,1.17050279 L13.7586555,14.475419 C13.0346218,14.8917318 12.2228571,15.1008939 11.4121008,15.1008939" id="path-4"></path>
        <linearGradient x1="65.9493566%" y1="50.746189%" x2="34.0467859%" y2="43.2900988%" id="linearGradient-6">
            <stop stop-color="#7CC9D0" offset="0%"></stop>
            <stop stop-color="#5968A2" offset="100%"></stop>
        </linearGradient>
        <path d="M45.4315966,1.25396648 L1.45815126,26.5726257 C1.26453782,26.6842458 1.24336134,26.8682682 1.24336134,26.941676 C1.24336134,27.017095 1.26352941,27.2011173 1.45815126,27.3127374 L72.6605042,68.3064804 C74.3606723,69.2869274 76.4752941,69.2859218 78.1754622,68.3064804 L119.391933,44.576648 C119.585546,44.4650279 119.606723,44.2820112 119.606723,44.2065922 C119.606723,44.1321788 119.585546,43.9471508 119.392941,43.8365363 L45.4315966,1.25396648 Z M75.4184874,70.1115084 C74.28,70.1115084 73.1405042,69.8188827 72.1230252,69.2336313 L0.920672269,28.2398883 C0.450756303,27.9683799 0.169411765,27.4826816 0.169411765,26.941676 C0.169411765,26.4006704 0.450756303,25.9159777 0.920672269,25.6454749 L45.4315966,0.0191061453 L45.7008403,0.172960894 L119.929412,42.9093855 C120.399328,43.1798883 120.680672,43.664581 120.680672,44.2065922 C120.680672,44.7486034 120.399328,45.2343017 119.928403,45.5037989 L78.7129412,69.2336313 C77.6964706,69.8188827 76.5569748,70.1115084 75.4184874,70.1115084 L75.4184874,70.1115084 Z" id="path-7"></path>
        <linearGradient x1="100%" y1="49.9992827%" x2="0%" y2="49.9992827%" id="linearGradient-9">
            <stop stop-color="#7CC9D0" offset="0%"></stop>
            <stop stop-color="#5968A2" offset="100%"></stop>
        </linearGradient>
        <path d="M72.0393277,108.092514 C72.2420168,107.998994 72.3872269,107.797877 72.4376471,107.499218 C72.3872269,107.797877 72.2420168,107.998994 72.0393277,108.092514 M82.4359664,48.3455866 C82.4863866,48.0499441 82.4147899,47.7 82.2685714,47.3671508 L80.9647059,47.9423464 C80.7751261,47.5712849 80.4887395,47.2364246 80.1630252,47.0493855 L0.885378151,1.40581006 C0.683697479,1.28916201 0.491092437,1.23385475 0.320672269,1.23385475 C0.210756303,1.23385475 0.109915966,1.25698324 0.0211764706,1.30122905 L1.20705882,0.623463687 L1.20504202,0.630502793 C1.30991597,0.561117318 1.43394958,0.524916201 1.57109244,0.524916201 C1.7405042,0.524916201 1.92907563,0.579217877 2.1287395,0.693854749 L81.407395,46.3374302 C82.0578151,46.712514 82.5509244,47.6738547 82.4359664,48.3455866" id="path-10"></path>
        <linearGradient x1="100.000534%" y1="50.318781%" x2="-11.1010441%" y2="50.318781%" id="linearGradient-12">
            <stop stop-color="#C0D0E1" offset="0%"></stop>
            <stop stop-color="#ECF7F7" offset="100%"></stop>
        </linearGradient>
        <path d="M0.294453782,61.4956425 C0.451764706,61.3880447 0.562689076,61.2030168 0.605042017,60.9486034 L10.6043697,1.79497207 C10.6618487,1.45910615 10.5670588,1.05083799 10.3764706,0.679776536 L11.6803361,0.104581006 C11.8265546,0.437430168 11.8981513,0.787374302 11.8477311,1.08301676 L1.84941176,60.236648 C1.7989916,60.5353073 1.65378151,60.7364246 1.45109244,60.8299441 C1.44504202,60.8329609 1.4389916,60.8359777 1.43193277,60.8389944 L1.43294118,60.8389944 L0.294453782,61.4956425" id="path-13"></path>
        <linearGradient x1="100.000544%" y1="50.01638%" x2="-35.9245396%" y2="50.01638%" id="linearGradient-15">
            <stop stop-color="#5968A2" offset="0%"></stop>
            <stop stop-color="#BDCFE1" offset="100%"></stop>
        </linearGradient>
        <path d="M0.333781513,23.6825698 L4.66084034,25.9350838 L48.0433613,0.958324022 C48.7694118,0.54 50.0369748,0.593296089 50.874958,1.07497207 L125.697479,44.1543017 C126.414454,43.7540782 129.678655,42.1893855 129.678655,42.1893855 L128.095462,46.3042458 L128.088403,46.2992179 C128.022857,46.4822346 127.882689,46.6521788 127.645714,46.7889385 L81.954958,73.0940782 C81.2289076,73.5124022 79.9613445,73.4601117 79.1233613,72.9774302 L2.55529412,28.8945251 C2.21142857,28.6964246 2.00067227,28.4560894 1.91294118,28.213743 L1.90689076,28.2177654 L0.333781513,23.6825698" id="path-16"></path>
        <linearGradient x1="100%" y1="50.0004587%" x2="0%" y2="50.0004587%" id="linearGradient-18">
            <stop stop-color="#5968A2" offset="0%"></stop>
            <stop stop-color="#BDCFE1" offset="100%"></stop>
        </linearGradient>
        <path d="M1.00235294,29.4194413 L79.4742857,74.5984358 C80.3334454,75.0931844 81.6332773,75.1464804 82.3764706,74.7181006 L129.203697,47.758324 C129.947899,47.3299441 129.854118,46.5817877 128.994958,46.0880447 L50.5240336,0.908044693 C49.6648739,0.414301676 48.365042,0.36 47.6218487,0.788379888 L0.794621849,27.7481564 C0.0504201681,28.1765363 0.144201681,28.9246927 1.00235294,29.4194413" id="path-19"></path>
        <linearGradient x1="66.3965521%" y1="50.0004475%" x2="-33.603299%" y2="50.0004475%" id="linearGradient-21">
            <stop stop-color="#C0D0E1" offset="0%"></stop>
            <stop stop-color="#ECF7F7" offset="100%"></stop>
        </linearGradient>
        <path d="M19.022521,19.1232402 L1.4389916,9 C0.752268908,8.60480447 0.752268908,7.96324022 1.4389916,7.56703911 L13.4631933,0.644581006 C14.149916,0.249385475 15.2642017,0.249385475 15.9519328,0.644581006 L33.5344538,10.7678212 C34.2221849,11.1640223 34.2221849,11.8055866 33.5344538,12.2007821 L21.5112605,19.1232402 C20.8235294,19.5194413 19.7092437,19.5194413 19.022521,19.1232402" id="path-22"></path>
        <linearGradient x1="99.9984779%" y1="49.9980228%" x2="-0.00136985259%" y2="49.9980228%" id="linearGradient-24">
            <stop stop-color="#C0D0E1" offset="0%"></stop>
            <stop stop-color="#ECF7F7" offset="100%"></stop>
        </linearGradient>
        <path d="M90.1754622,82.9050838 L51.9922689,60.9214525 L52.074958,60.433743 L97.0648739,34.530838 C97.4016807,34.3367598 97.8534454,34.2422346 98.3253782,34.2422346 C98.8961345,34.2422346 99.4971429,34.38 99.9670588,34.6505028 L136.708235,55.8040223 L136.228235,58.6256983 L126.080672,52.7832402 C125.737815,52.5851397 125.287059,52.4865922 124.836303,52.4865922 C124.386555,52.4865922 123.935798,52.5851397 123.591933,52.7832402 L111.568739,59.7056983 C111.564706,59.7077095 111.561681,59.7097207 111.558655,59.7117318 C111.557647,59.7117318 111.557647,59.7127374 111.556639,59.7127374 C110.881008,60.1089385 110.885042,60.7454749 111.568739,61.1386592 L129.151261,71.2618994 C129.495126,71.46 129.945882,71.5585475 130.39563,71.5585475 C130.846387,71.5585475 131.296134,71.46 131.64,71.2618994 L134.343529,69.7052514 L133.292479,75.8820927 L128.358655,104.888715" id="path-25"></path>
        <linearGradient x1="97.4684883%" y1="66.5093341%" x2="-53.2886158%" y2="66.5093341%" id="linearGradient-27">
            <stop stop-color="#434C8E" offset="0%"></stop>
            <stop stop-color="#474F90" offset="100%"></stop>
        </linearGradient>
        <linearGradient x1="107.391309%" y1="57.0078565%" x2="68.8016728%" y2="57.0078565%" id="linearGradient-28">
            <stop stop-color="#434C8E" offset="0%"></stop>
            <stop stop-color="#474F90" offset="100%"></stop>
        </linearGradient>
        <polyline id="path-29" points="61.4168067 5.18178771 137.834622 49.1782123 128.358655 104.888715 51.9922689 60.9214525 61.4168067 5.18178771"></polyline>
    </defs>
    <g id="页面-1" stroke="none" stroke-width="1" fill="none" fill-rule="evenodd">
        <g id="屏4百信智能聚变引擎" transform="translate(-1417.000000, -1197.000000)">
            <g id="编组-4" transform="translate(904.000000, 874.000000)">
                <g id="编组-3" transform="translate(224.000000, 303.000000)">
                    <g id="编组-7备份" transform="translate(288.000000, 20.000000)">
                        <g id="专题管控系统">
                            <g id="底座" transform="translate(0.000000, 49.273743)">
                                <path d="M126.223254,5.02848335 L237.26816,64.2848172 C238.073269,64.7144432 238.377657,65.7153933 237.948031,66.5205018 C237.79381,66.809508 237.557166,67.0461522 237.26816,67.2003731 L126.223254,126.456707 C122.33397,128.532126 117.66603,128.532126 113.776746,126.456707 L2.7318399,67.2003731 C1.92673136,66.7707471 1.62234264,65.769797 2.05196865,64.9646884 C2.20618953,64.6756823 2.44283377,64.4390381 2.7318399,64.2848172 L113.776746,5.02848335 C117.66603,2.95306472 122.33397,2.95306472 126.223254,5.02848335 Z" id="矩形" stroke="url(#linearGradient-1)" stroke-width="1.71169811"></path>
                                <path d="M125.53619,8.52915199 L226.899063,62.5350514 C227.727459,62.9764189 228.041208,64.0057657 227.599841,64.8341618 C227.441054,65.1321858 227.197087,65.3761527 226.899063,65.5349391 L125.53619,119.540839 C121.539885,121.67006 116.74583,121.67006 112.749525,119.540839 L11.386651,65.5349391 C10.5582549,65.0935716 10.2445062,64.0642248 10.6858737,63.2358287 C10.8446602,62.9378047 11.088627,62.6938379 11.386651,62.5350514 L112.749525,8.52915199 C116.74583,6.39993025 121.539885,6.39993025 125.53619,8.52915199 Z" id="矩形" fill="url(#linearGradient-2)"></path>
                                <path d="M125.53619,3.40635237 L226.899063,57.4122518 C227.727459,57.8536193 228.041208,58.8829661 227.599841,59.7113622 C227.441054,60.0093862 227.197087,60.253353 226.899063,60.4121395 L125.53619,114.418039 C121.539885,116.547261 116.74583,116.547261 112.749525,114.418039 L11.386651,60.4121395 C10.5582549,59.970772 10.2445062,58.9414252 10.6858737,58.1130291 C10.8446602,57.8150051 11.088627,57.5710382 11.386651,57.4122518 L112.749525,3.40635237 C116.74583,1.27713063 121.539885,1.27713063 125.53619,3.40635237 Z" id="矩形" fill="url(#linearGradient-3)"></path>
                            </g>
                            <g id="编组-11" transform="translate(50.420168, 0.000000)">
                                <g id="编组" transform="translate(102.857143, 125.698324)">
                                    <mask id="mask-5" fill="white">
                                        <use xlink:href="#path-4"></use>
                                    </mask>
                                    <g id="Clip-829"></g>
                                    <path d="M11.4121008,15.1008939 C10.5993277,15.1008939 9.78857143,14.8917318 9.06453782,14.475419 L0.275294118,9.41530726 L0.812773109,8.48815642 L9.60201681,13.5482682 C10.7173109,14.1918436 12.1068908,14.1898324 13.2211765,13.5482682 L36.3357983,0.244357542 L36.8732773,1.17050279 L13.7586555,14.475419 C13.0346218,14.8917318 12.2228571,15.1008939 11.4121008,15.1008939" id="Fill-828" fill="url(#linearGradient-6)" mask="url(#mask-5)"></path>
                                </g>
                                <g id="编组" transform="translate(5.042017, 77.430168)">
                                    <mask id="mask-8" fill="white">
                                        <use xlink:href="#path-7"></use>
                                    </mask>
                                    <g id="Clip-831"></g>
                                    <path d="M45.4315966,1.25396648 L1.45815126,26.5726257 C1.26453782,26.6842458 1.24336134,26.8682682 1.24336134,26.941676 C1.24336134,27.017095 1.26352941,27.2011173 1.45815126,27.3127374 L72.6605042,68.3064804 C74.3606723,69.2869274 76.4752941,69.2859218 78.1754622,68.3064804 L119.391933,44.576648 C119.585546,44.4650279 119.606723,44.2820112 119.606723,44.2065922 C119.606723,44.1321788 119.585546,43.9471508 119.392941,43.8365363 L45.4315966,1.25396648 Z M75.4184874,70.1115084 C74.28,70.1115084 73.1405042,69.8188827 72.1230252,69.2336313 L0.920672269,28.2398883 C0.450756303,27.9683799 0.169411765,27.4826816 0.169411765,26.941676 C0.169411765,26.4006704 0.450756303,25.9159777 0.920672269,25.6454749 L45.4315966,0.0191061453 L45.7008403,0.172960894 L119.929412,42.9093855 C120.399328,43.1798883 120.680672,43.664581 120.680672,44.2065922 C120.680672,44.7486034 120.399328,45.2343017 119.928403,45.5037989 L78.7129412,69.2336313 C77.6964706,69.8188827 76.5569748,70.1115084 75.4184874,70.1115084 L75.4184874,70.1115084 Z" id="Fill-830" fill="url(#linearGradient-9)" mask="url(#mask-8)"></path>
                                </g>
                                <g id="编组" transform="translate(59.495798, 0.000000)">
                                    <mask id="mask-11" fill="white">
                                        <use xlink:href="#path-10"></use>
                                    </mask>
                                    <g id="Clip-833"></g>
                                    <path d="M72.0393277,108.092514 C72.2420168,107.998994 72.3872269,107.797877 72.4376471,107.499218 C72.3872269,107.797877 72.2420168,107.998994 72.0393277,108.092514 M82.4359664,48.3455866 C82.4863866,48.0499441 82.4147899,47.7 82.2685714,47.3671508 L80.9647059,47.9423464 C80.7751261,47.5712849 80.4887395,47.2364246 80.1630252,47.0493855 L0.885378151,1.40581006 C0.683697479,1.28916201 0.491092437,1.23385475 0.320672269,1.23385475 C0.210756303,1.23385475 0.109915966,1.25698324 0.0211764706,1.30122905 L1.20705882,0.623463687 L1.20504202,0.630502793 C1.30991597,0.561117318 1.43394958,0.524916201 1.57109244,0.524916201 C1.7405042,0.524916201 1.92907563,0.579217877 2.1287395,0.693854749 L81.407395,46.3374302 C82.0578151,46.712514 82.5509244,47.6738547 82.4359664,48.3455866" id="Fill-832" fill="url(#linearGradient-12)" mask="url(#mask-11)"></path>
                                </g>
                                <g id="编组" transform="translate(130.084034, 47.262570)">
                                    <mask id="mask-14" fill="white">
                                        <use xlink:href="#path-13"></use>
                                    </mask>
                                    <g id="Clip-835"></g>
                                    <path d="M0.294453782,61.4956425 C0.451764706,61.3880447 0.562689076,61.2030168 0.605042017,60.9486034 L10.6043697,1.79497207 C10.6618487,1.45910615 10.5670588,1.05083799 10.3764706,0.679776536 L11.6803361,0.104581006 C11.8265546,0.437430168 11.8981513,0.787374302 11.8477311,1.08301676 L1.84941176,60.236648 C1.7989916,60.5353073 1.65378151,60.7364246 1.45109244,60.8299441 C1.44504202,60.8329609 1.4389916,60.8359777 1.43193277,60.8389944 L1.43294118,60.8389944 L0.294453782,61.4956425" id="Fill-834" fill="url(#linearGradient-15)" mask="url(#mask-14)"></path>
                                </g>
                                <path d="M50.1680672,63.0512849 L129.445714,108.693855 C130.057815,109.046816 130.582185,108.842682 130.689076,108.211173 L140.688403,49.0575419 C140.802353,48.3848045 140.310252,47.4234637 139.658824,47.0493855 L60.3811765,1.40581006 C59.7690756,1.05284916 59.2447059,1.25698324 59.1368067,1.88849162 L49.1384874,61.0431285 C49.0245378,61.7148603 49.5176471,62.6762011 50.1680672,63.0512849" id="Fill-836" fill="#2A2C75"></path>
                                <path d="M51.9922689,60.9214525 L51.9922689,60.9214525 L61.4168067,5.18178771 L137.834622,49.1782123 L136.708235,55.8040223 L99.9670588,34.6505028 C99.4971429,34.38 98.8961345,34.2422346 98.3253782,34.2422346 C97.8534454,34.2422346 97.4016807,34.3367598 97.0648739,34.530838 L52.074958,60.433743 L51.9922689,60.9214525" id="Fill-837" fill="#373F85"></path>
                                <g id="编组" transform="translate(0.000000, 67.374302)">
                                    <mask id="mask-17" fill="white">
                                        <use xlink:href="#path-16"></use>
                                    </mask>
                                    <g id="Clip-839"></g>
                                    <path d="M0.333781513,23.6825698 L4.66084034,25.9350838 L48.0433613,0.958324022 C48.7694118,0.54 50.0369748,0.593296089 50.874958,1.07497207 L125.697479,44.1543017 C126.414454,43.7540782 129.678655,42.1893855 129.678655,42.1893855 L128.095462,46.3042458 L128.088403,46.2992179 C128.022857,46.4822346 127.882689,46.6521788 127.645714,46.7889385 L81.954958,73.0940782 C81.2289076,73.5124022 79.9613445,73.4601117 79.1233613,72.9774302 L2.55529412,28.8945251 C2.21142857,28.6964246 2.00067227,28.4560894 1.91294118,28.213743 L1.90689076,28.2177654 L0.333781513,23.6825698" id="Fill-838" fill="url(#linearGradient-18)" mask="url(#mask-17)"></path>
                                </g>
                                <g id="编组" transform="translate(0.000000, 62.346369)">
                                    <mask id="mask-20" fill="white">
                                        <use xlink:href="#path-19"></use>
                                    </mask>
                                    <g id="Clip-841"></g>
                                    <path d="M1.00235294,29.4194413 L79.4742857,74.5984358 C80.3334454,75.0931844 81.6332773,75.1464804 82.3764706,74.7181006 L129.203697,47.758324 C129.947899,47.3299441 129.854118,46.5817877 128.994958,46.0880447 L50.5240336,0.908044693 C49.6648739,0.414301676 48.365042,0.36 47.6218487,0.788379888 L0.794621849,27.7481564 C0.0504201681,28.1765363 0.144201681,28.9246927 1.00235294,29.4194413" id="Fill-840" fill="url(#linearGradient-21)" mask="url(#mask-20)"></path>
                                </g>
                                <path d="M129.203697,109.428939 L82.3764706,136.389721 C81.6332773,136.817095 80.3334454,136.763799 79.4742857,136.26905 L1.00235294,91.0900559 C0.695798319,90.9140782 0.49210084,90.7049162 0.383193277,90.4897207 C0.156302521,90.9 0.36907563,91.4017877 1.00235294,91.7658101 L79.4742857,136.944804 C80.3334454,137.439553 81.6332773,137.492849 82.3764706,137.064469 L129.203697,110.104693 C129.681681,109.829162 129.809748,109.421899 129.615126,109.034749 C129.533445,109.181564 129.399328,109.316313 129.203697,109.428939" id="Fill-842" fill="#FFFFFE"></path>
                                <polyline id="Fill-843" fill="#3A5494" points="103.143529 127.172514 103.143529 126.313743 103.032605 126.230279 99.9983193 127.977989 99.887395 128.189162 99.887395 129.046927 99.9983193 129.130391 103.032605 127.382682 103.143529 127.172514"></polyline>
                                <polyline id="Fill-844" fill="#3A5494" points="98.6047059 129.785028 98.6047059 128.927263 98.4937815 128.843799 95.4584874 130.590503 95.347563 130.801676 95.347563 131.660447 95.4584874 131.743911 98.4937815 129.996201 98.6047059 129.785028"></polyline>
                                <path d="M116.995966,107.579665 L51.7855462,70.0360894 C51.3509244,69.7856983 50.8144538,69.7856983 50.3798319,70.0360894 L27.1593277,83.4335196 C26.8255462,83.6265922 26.8265546,84.106257 27.1593277,84.298324 L92.3394958,121.824804 C92.7731092,122.075196 93.3085714,122.075196 93.7431933,121.824804 L116.995966,108.444469 C117.329748,108.252402 117.329748,107.771732 116.995966,107.579665" id="Fill-845" fill="#ADBED8"></path>
                                <path d="M116.995966,108.444469 L116.762017,108.579218 L51.7855462,71.1693855 C51.3509244,70.9189944 50.8144538,70.9189944 50.3798319,71.1703911 L27.3932773,84.4330726 L27.1593277,84.298324 C26.8265546,84.106257 26.8255462,83.6265922 27.1593277,83.4335196 L50.3798319,70.0360894 C50.8144538,69.7856983 51.3509244,69.7856983 51.7855462,70.0360894 L116.995966,107.579665 C117.329748,107.771732 117.329748,108.252402 116.995966,108.444469" id="Fill-846" fill="#94A5C9"></path>
                                <polyline id="Fill-847" fill="#2A2C75" points="48.6282353 73.4299441 105.272269 106.042123 107.790252 104.592067 51.1462185 71.9798883 48.6282353 73.4299441"></polyline>
                                <polyline id="Fill-848" fill="#2A2C75" points="42.4537815 76.9846927 95.5835294 107.573631 98.1015126 106.123575 44.9717647 75.5346369 42.4537815 76.9846927"></polyline>
                                <polyline id="Fill-849" fill="#2A2C75" points="38.4312605 79.2995531 100.986555 115.315642 103.505546 113.865587 40.9502521 77.8494972 38.4312605 79.2995531"></polyline>
                                <polyline id="Fill-850" fill="#2A2C75" points="34.4097479 81.615419 96.965042 117.630503 99.4840336 116.180447 36.9287395 80.1653631 34.4097479 81.615419"></polyline>
                                <polyline id="Fill-851" fill="#2A2C75" points="30.3882353 83.9312849 92.9435294 119.946369 95.4615126 118.496313 32.9072269 82.4812291 30.3882353 83.9312849"></polyline>
                                <polyline id="Fill-852" fill="#2A2C75" points="108.69479 108.012067 111.213782 109.462123 113.731765 108.012067 111.213782 106.562011 108.69479 108.012067"></polyline>
                                <polyline id="Fill-853" fill="#2A2C75" points="99.8107563 110.007151 105.038319 113.016872 107.557311 111.566816 102.329748 108.557095 99.8107563 110.007151"></polyline>
                                <g id="编组" transform="translate(30.252101, 97.541899)">
                                    <mask id="mask-23" fill="white">
                                        <use xlink:href="#path-22"></use>
                                    </mask>
                                    <g id="Clip-855"></g>
                                    <path d="M19.022521,19.1232402 L1.4389916,9 C0.752268908,8.60480447 0.752268908,7.96324022 1.4389916,7.56703911 L13.4631933,0.644581006 C14.149916,0.249385475 15.2642017,0.249385475 15.9519328,0.644581006 L33.5344538,10.7678212 C34.2221849,11.1640223 34.2221849,11.8055866 33.5344538,12.2007821 L21.5112605,19.1232402 C20.8235294,19.5194413 19.7092437,19.5194413 19.022521,19.1232402" id="Fill-854" fill="url(#linearGradient-24)" mask="url(#mask-23)"></path>
                                </g>
                                <path d="M63.7865546,108.895978 L46.2040336,98.7727374 C45.5163025,98.3775419 44.4020168,98.3775419 43.7152941,98.7727374 L31.6910924,105.695196 C31.4793277,105.817877 31.3411765,105.964693 31.2594958,106.118547 C31.0779832,105.772626 31.2161345,105.382458 31.6910924,105.108939 L43.7152941,98.1864804 C44.4020168,97.7912849 45.5163025,97.7912849 46.2040336,98.1864804 L63.7865546,108.309721 C64.262521,108.58324 64.4006723,108.973408 64.2191597,109.31933 C64.137479,109.164469 63.9993277,109.018659 63.7865546,108.895978" id="Fill-856" fill="#94A5C9"></path>
                                <mask id="mask-26" fill="white">
                                    <use xlink:href="#path-25"></use>
                                </mask>
                                <g id="Clip-858"></g>
                                <polyline id="Fill-857" fill="url(#linearGradient-27)" mask="url(#mask-26)" points="61.4168067 5.18178771 137.834622 49.1782123 128.358655 104.888715 51.9922689 60.9214525 61.4168067 5.18178771"></polyline>
                                <polyline id="Fill-859" fill="url(#linearGradient-28)" mask="url(#mask-26)" points="61.4168067 5.18178771 137.834622 49.1782123 128.358655 104.888715 51.9922689 60.9214525 61.4168067 5.18178771"></polyline>
                                <polyline id="Fill-860" fill="url(#linearGradient-28)" mask="url(#mask-26)" points="61.4168067 5.18178771 137.834622 49.1782123 128.358655 104.888715 51.9922689 60.9214525 61.4168067 5.18178771"></polyline>
                                <mask id="mask-30" fill="white">
                                    <use xlink:href="#path-29"></use>
                                </mask>
                                <g id="Clip-862"></g>
                                <path d="M111.136134,60.7153073 C110.956639,60.3724022 111.090756,59.986257 111.556639,59.7127374 C111.557647,59.7127374 111.557647,59.7117318 111.558655,59.7117318 C111.561681,59.7097207 111.564706,59.7077095 111.568739,59.7056983 L123.591933,52.7832402 C123.935798,52.5851397 124.386555,52.4865922 124.836303,52.4865922 C125.287059,52.4865922 125.737815,52.5851397 126.080672,52.7832402 L136.228235,58.6256983 L136.137479,59.1596648 L126.080672,53.3694972 C125.737815,53.1713966 125.287059,53.0728492 124.836303,53.0728492 C124.386555,53.0728492 123.935798,53.1713966 123.591933,53.3694972 L111.568739,60.2919553 C111.355966,60.4136313 111.217815,60.5604469 111.136134,60.7153073" id="Fill-861" fill="#3F498C" mask="url(#mask-30)"></path>
                                <path d="M127.438992,101.514972 C127.196975,101.514972 126.954958,101.452626 126.737143,101.326927 L61.7909244,63.9351955 L84.7784874,50.672514 C84.9963025,50.5468156 85.2383193,50.4844693 85.4813445,50.4844693 C85.7233613,50.4844693 85.9663866,50.5468156 86.1831933,50.6715084 L132.996303,77.6232402 L132.658487,79.6112849 L84.8712605,52.0984358 L82.6215126,53.3936313 L132.257143,81.9703911 L131.988908,83.5441341 L81.1210084,54.2574302 L78.8702521,55.5536313 L131.587563,85.9042458 L131.320336,87.4779888 L77.3707563,56.4174302 L75.12,57.7126257 L130.918992,89.8381006 L130.43395,92.6839106 L129.398319,93.2812291 L130.249412,93.7709497 L129.582857,97.6887151 L127.19395,96.3130726 L124.944202,97.6092737 L128.455462,99.6305028 L129.339832,99.121676 L129.053445,100.802011 L128.14084,101.326927 C127.924034,101.452626 127.681008,101.514972 127.438992,101.514972 M67.6346218,62.0225698 L65.3838655,63.3177654 L122.193277,96.0254749 L124.444034,94.7302793 L67.6346218,62.0225698 M73.6194958,58.5764246 L71.3697479,59.8716201 L125.365714,90.9593296 L127.616471,89.6641341 L73.6194958,58.5764246" id="Fill-863" fill="#414B8D" mask="url(#mask-30)"></path>
                                <path d="M61.3068908,63.3690503 C61.3068908,63.2001117 61.3905882,63.0321788 61.5569748,62.936648 L84.7784874,49.5382123 C84.9942857,49.4145251 85.2342857,49.3511732 85.4752941,49.3501676 C85.2342857,49.3511732 84.9942857,49.4145251 84.7784874,49.5382123 L61.5569748,62.936648 C61.3905882,63.0321788 61.3068908,63.2001117 61.3068908,63.3690503" id="Fill-864" fill="#414B8D" mask="url(#mask-30)"></path>
                                <path d="M132.996303,77.6232402 L86.1831933,50.6715084 C85.9663866,50.5468156 85.7233613,50.4844693 85.4813445,50.4844693 C85.2383193,50.4844693 84.9963025,50.5468156 84.7784874,50.672514 L61.7909244,63.9351955 L61.5579832,63.8004469 C61.3905882,63.7049162 61.3078992,63.5369832 61.3068908,63.3690503 C61.3068908,63.2001117 61.3905882,63.0321788 61.5569748,62.936648 L84.7784874,49.5382123 C84.9942857,49.4145251 85.2342857,49.3511732 85.4752941,49.3501676 C85.4773109,49.3501676 85.4793277,49.3501676 85.4813445,49.3501676 C85.4833613,49.3501676 85.4853782,49.3501676 85.487395,49.3501676 C85.7193277,49.3511732 85.9512605,49.4094972 86.1610084,49.5261453 C86.1630252,49.5261453 86.1640336,49.5271508 86.165042,49.5281564 C86.1710924,49.5311732 86.1771429,49.5341899 86.1831933,49.5382123 L133.171765,76.5915084 L132.996303,77.6232402" id="Fill-865" fill="#3F498C" mask="url(#mask-30)"></path>
                                <polyline id="Fill-866" fill="#353D83" mask="url(#mask-30)" points="122.193277 96.0254749 65.3838655 63.3177654 67.6346218 62.0225698 124.444034 94.7302793 122.193277 96.0254749"></polyline>
                                <polyline id="Fill-867" fill="#353D83" mask="url(#mask-30)" points="125.365714 90.9593296 71.3697479 59.8716201 73.6194958 58.5764246 127.616471 89.6641341 125.365714 90.9593296"></polyline>
                                <polyline id="Fill-868" fill="#353D83" mask="url(#mask-30)" points="130.249412 93.7709497 129.398319 93.2812291 130.43395 92.6839106 130.249412 93.7709497"></polyline>
                                <polyline id="Fill-869" fill="#353D83" mask="url(#mask-30)" points="128.455462 99.6305028 124.944202 97.6092737 127.19395 96.3130726 129.582857 97.6887151 129.339832 99.121676 128.455462 99.6305028"></polyline>
                                <polyline id="Fill-870" fill="#353D83" mask="url(#mask-30)" points="130.918992 89.8381006 75.12 57.7126257 77.3707563 56.4174302 131.320336 87.4779888 130.918992 89.8381006"></polyline>
                                <polyline id="Fill-871" fill="#353D83" mask="url(#mask-30)" points="131.587563 85.9042458 78.8702521 55.5536313 81.1210084 54.2574302 131.988908 83.5441341 131.587563 85.9042458"></polyline>
                                <polyline id="Fill-872" fill="#353D83" mask="url(#mask-30)" points="132.257143 81.9703911 82.6215126 53.3936313 84.8712605 52.0984358 132.658487 79.6112849 132.257143 81.9703911"></polyline>
                            </g>
                        </g>
                    </g>
                </g>
            </g>
        </g>
    </g>
</svg>