<?xml version="1.0" encoding="UTF-8"?>
<svg width="238px" height="193px" viewBox="0 0 238 193" version="1.1" xmlns="http://www.w3.org/2000/svg" xmlns:xlink="http://www.w3.org/1999/xlink">
    <!-- Generator: Sketch 64 (93537) - https://sketch.com -->
    <title>分析研判库</title>
    <desc>Created with Sketch.</desc>
    <defs>
        <linearGradient x1="1.03894327%" y1="50.6766554%" x2="100%" y2="50%" id="linearGradient-1">
            <stop stop-color="#82EDFF" offset="0%"></stop>
            <stop stop-color="#41C8FF" offset="100%"></stop>
        </linearGradient>
        <linearGradient x1="11.8077181%" y1="46.2226016%" x2="101.643668%" y2="50%" id="linearGradient-2">
            <stop stop-color="#327DFF" offset="0%"></stop>
            <stop stop-color="#374CC1" stop-opacity="0.590144231" offset="100%"></stop>
        </linearGradient>
        <linearGradient x1="11.8077181%" y1="46.2226016%" x2="101.643668%" y2="50%" id="linearGradient-3">
            <stop stop-color="#56C1FF" offset="0%"></stop>
            <stop stop-color="#289AFF" offset="100%"></stop>
        </linearGradient>
        <linearGradient x1="50%" y1="100%" x2="50%" y2="21.324262%" id="linearGradient-4">
            <stop stop-color="#006ED7" stop-opacity="0.656905594" offset="0%"></stop>
            <stop stop-color="#0024DB" stop-opacity="0" offset="100%"></stop>
        </linearGradient>
        <linearGradient x1="50%" y1="84.5399924%" x2="50%" y2="12.2358104%" id="linearGradient-5">
            <stop stop-color="#2AB2F9" stop-opacity="0.752349213" offset="0%"></stop>
            <stop stop-color="#0A6AF4" stop-opacity="0.592657343" offset="100%"></stop>
        </linearGradient>
        <linearGradient x1="52.8140512%" y1="34.7188226%" x2="50%" y2="61.1185059%" id="linearGradient-6">
            <stop stop-color="#2AB2F9" stop-opacity="0.228447334" offset="0%"></stop>
            <stop stop-color="#0A6AF4" stop-opacity="0.592657343" offset="100%"></stop>
        </linearGradient>
        <filter x="0.0%" y="0.0%" width="100.0%" height="100.0%" filterUnits="objectBoundingBox" id="filter-7">
            <feGaussianBlur stdDeviation="0" in="SourceGraphic"></feGaussianBlur>
        </filter>
        <linearGradient x1="57.8892914%" y1="23.8835876%" x2="43.2786855%" y2="77.6098578%" id="linearGradient-8">
            <stop stop-color="#99FFF8" stop-opacity="0.274639423" offset="0%"></stop>
            <stop stop-color="#4D69FF" stop-opacity="0.274639423" offset="100%"></stop>
        </linearGradient>
        <linearGradient x1="74.4147621%" y1="42.8288572%" x2="29.1997424%" y2="57.5812187%" id="linearGradient-9">
            <stop stop-color="#99FFF8" stop-opacity="0.274639423" offset="0%"></stop>
            <stop stop-color="#4D69FF" stop-opacity="0.274639423" offset="100%"></stop>
        </linearGradient>
        <linearGradient x1="2.68988345%" y1="46.0273229%" x2="60.9899101%" y2="55.6285135%" id="linearGradient-10">
            <stop stop-color="#99FFF8" stop-opacity="0.274639423" offset="0%"></stop>
            <stop stop-color="#4D69FF" stop-opacity="0.274639423" offset="100%"></stop>
        </linearGradient>
        <linearGradient x1="24.475024%" y1="51.7695009%" x2="59.7203769%" y2="32.0003559%" id="linearGradient-11">
            <stop stop-color="#0E4BF9" offset="0%"></stop>
            <stop stop-color="#0688F0" offset="100%"></stop>
        </linearGradient>
        <linearGradient x1="50%" y1="82.444618%" x2="44.5836579%" y2="2.43890291%" id="linearGradient-12">
            <stop stop-color="#A2E5FF" offset="0%"></stop>
            <stop stop-color="#CFF1FF" offset="100%"></stop>
        </linearGradient>
        <linearGradient x1="11.0861025%" y1="19.6217032%" x2="88.9138975%" y2="75.1503162%" id="linearGradient-13">
            <stop stop-color="#475CD1" offset="0%"></stop>
            <stop stop-color="#2F4DD1" offset="34.5782306%"></stop>
            <stop stop-color="#455AD4" offset="100%"></stop>
        </linearGradient>
        <linearGradient x1="46.5405998%" y1="29.9671046%" x2="53.4594002%" y2="67.158363%" id="linearGradient-14">
            <stop stop-color="#FFFFFF" stop-opacity="0" offset="0%"></stop>
            <stop stop-color="#FFFFFF" stop-opacity="0.689657998" offset="100%"></stop>
        </linearGradient>
        <linearGradient x1="33.4881479%" y1="39.9310076%" x2="103.821155%" y2="45.8389977%" id="linearGradient-15">
            <stop stop-color="#FFFFFF" stop-opacity="0" offset="0%"></stop>
            <stop stop-color="#FFFFFF" stop-opacity="0.689657998" offset="100%"></stop>
        </linearGradient>
    </defs>
    <g id="页面-1" stroke="none" stroke-width="1" fill="none" fill-rule="evenodd">
        <g id="屏4百信智能聚变引擎" transform="translate(-2857.000000, -1183.000000)">
            <g id="编组-4" transform="translate(904.000000, 874.000000)">
                <g id="编组-3" transform="translate(224.000000, 303.000000)">
                    <g id="编组-7备份-6" transform="translate(1728.000000, 6.000000)">
                        <g id="分析研判库">
                            <g id="底座" transform="translate(0.000000, 63.746487)">
                                <path d="M127.390299,5.63329739 L236.735151,63.7971002 C237.694288,64.3072939 238.058228,65.4984217 237.548035,66.4575587 C237.364062,66.8034182 237.08101,67.0864694 236.735151,67.2704424 L127.390299,125.434245 C122.769933,127.891956 117.230067,127.891956 112.609701,125.434245 L3.26484916,67.2704424 C2.3057122,66.7602487 1.94177177,65.5691209 2.45196546,64.6099839 C2.63593849,64.2641244 2.91898966,63.9810733 3.26484916,63.7971002 L112.609701,5.63329739 C117.230067,3.1755864 122.769933,3.1755864 127.390299,5.63329739 Z" id="矩形" stroke="url(#linearGradient-1)" stroke-width="2.03773585"></path>
                                <path d="M126.735117,9.13881676 L226.349791,62.0446945 C227.336669,62.5688307 227.711796,63.7937498 227.187659,64.7806279 C226.998243,65.1372739 226.706437,65.4290798 226.349791,65.6184963 L126.735117,118.524374 C121.987625,121.045792 116.298089,121.045792 111.550597,118.524374 L11.9359234,65.6184963 C10.9490452,65.0943602 10.5739188,63.8694411 11.0980549,62.882563 C11.2874715,62.525917 11.5792774,62.2341111 11.9359234,62.0446945 L111.550597,9.13881676 C116.298089,6.61739883 121.987625,6.61739883 126.735117,9.13881676 Z" id="矩形" fill="url(#linearGradient-2)"></path>
                                <path d="M126.735117,4.03228913 L226.349791,56.9381669 C227.336669,57.4623031 227.711796,58.6872222 227.187659,59.6741003 C226.998243,60.0307462 226.706437,60.3225521 226.349791,60.5119687 L126.735117,113.417846 C121.987625,115.939264 116.298089,115.939264 111.550597,113.417846 L11.9359234,60.5119687 C10.9490452,59.9878325 10.5739188,58.7629134 11.0980549,57.7760353 C11.2874715,57.4193894 11.5792774,57.1275835 11.9359234,56.9381669 L111.550597,4.03228913 C116.298089,1.5108712 121.987625,1.5108712 126.735117,4.03228913 Z" id="矩形" fill="url(#linearGradient-3)"></path>
                            </g>
                            <g id="r2" transform="translate(48.403361, 0.000000)">
                                <polygon id="投影" fill="url(#linearGradient-4)" style="mix-blend-mode: color-dodge;" points="72.6127179 105.232295 126.065772 133.242092 72.6127179 161.251888 19.1596639 133.242092"></polygon>
                                <polygon id="矩形" fill="url(#linearGradient-5)" opacity="0.262997582" points="73.2210933 76.9713127 126.674147 104.981109 73.2210933 132.990905 19.7680393 104.981109"></polygon>
                                <polygon id="矩形" fill="url(#linearGradient-6)" filter="url(#filter-7)" points="64.226589 92.9769106 93.7799602 108.511756 77.525606 116.985307 46.4945663 101.450462"></polygon>
                                <polygon id="矩形" fill="url(#linearGradient-8)" points="19.7680393 38.9580176 73.2210933 66.967814 73.2210933 132.990905 19.7680393 104.981109"></polygon>
                                <polygon id="矩形" fill="url(#linearGradient-9)" points="73.2210933 10.9482213 126.674147 38.9580176 73.2210933 66.967814 19.7680393 38.9580176"></polygon>
                                <polygon id="矩形" fill="url(#linearGradient-10)" transform="translate(99.947620, 85.974461) scale(-1, 1) translate(-99.947620, -85.974461) " points="73.2210933 38.9580176 126.674147 66.967814 126.674147 132.990905 73.2210933 104.981109"></polygon>
                                <path d="M72.4166159,43.802372 C77.7459614,46.5181132 82.0703447,54.9874996 82.0703447,62.7235599 C82.0703447,70.4596202 77.7459614,74.5217466 72.4166159,71.8060054 C67.0872703,69.0902642 62.7628871,60.6208778 62.7628871,52.8848175 C62.7628871,45.1487572 67.0872703,41.0866308 72.4166159,43.802372 Z M67.0369685,73.7319036 C67.0369685,73.7319036 71.3540013,82.959258 73.1914569,83.8955932 C75.0289125,84.8319284 79.3459453,80.0043426 79.3459453,80.0043426 C79.3459453,80.0043426 86.0141309,84.9656797 88.3257685,88.4810804 C91.0523156,92.6328991 91.7240735,104.981109 91.7240735,104.981109 L85.5564134,108.982508 L54.718113,86.1235195 C54.718113,86.1235195 54.0328175,83.0727839 52.6622264,76.9713127 C55.6000047,74.6892044 57.398311,73.3843402 58.0571453,73.05672 C60.3687829,71.8820813 67.0369685,73.7319036 67.0369685,73.7319036 Z M66.6412122,43.5787703 C75.5715953,61.3548156 79.7007373,70.6014794 79.0286382,71.3187615 C78.356539,72.0360437 75.7977782,73.7316146 71.3523558,76.4054744 L60.3651379,47.6809833 L66.6412122,43.5787703 Z" id="形状" fill="url(#linearGradient-11)" fill-rule="nonzero"></path>
                                <path d="M66.2489558,47.8037715 C71.5783014,50.5195127 75.9026846,58.9888991 75.9026846,66.7249594 C75.9026846,74.4610197 71.5783014,78.5231461 66.2489558,75.8074049 C60.9196102,73.0916637 56.595227,64.6222773 56.595227,56.886217 C56.595227,49.1501567 60.9196102,45.0880303 66.2489558,47.8037715 Z M48.550453,90.1249189 C48.550453,90.1249189 49.5679687,78.212546 51.8894852,77.0581195 C54.2011229,75.8834808 60.8693085,77.7333031 60.8693085,77.7333031 C60.8693085,77.7333031 65.1863412,86.9606574 67.0237968,87.8969926 C68.8612524,88.8333278 73.1782852,84.0057421 73.1782852,84.0057421 C73.1782852,84.0057421 79.8464708,88.9670792 82.1581085,92.4824799 C84.8846555,96.6342986 85.5564134,108.982508 85.5564134,108.982508 L48.550453,90.1249189 Z" id="形状" fill="url(#linearGradient-12)" fill-rule="nonzero"></path>
                                <path d="M34.7275305,112.819993 L19.7680393,104.981109 L19.7680393,89.1206683 M19.7680393,56.2497763 L19.7680393,38.9580176 L33.2106364,46.0020381 M58.3969965,59.1998774 L73.2210933,66.967814 M73.2210933,115.268782 L73.2210933,132.990905 L59.210459,125.649229 M34.2080153,97.3324138 L19.7680393,104.981109 M19.7680393,38.9580176 L35.3310862,30.7144442 M55.6649818,19.9438052 L73.2210933,10.6445276 L73.2210933,31.4208983 M73.2210933,56.4296325 L73.2210933,76.667619 M73.2210933,10.9482213 L87.3681344,18.3613757 M111.214722,30.857164 L126.674147,38.9580176 L111.240081,47.0455829 M111.529822,97.0453703 L126.674147,104.981109 L111.972691,112.684781 M87.7483331,125.378524 L73.2210933,132.990905 M126.674147,54.3211248 L126.674147,38.9580176 M86.6479567,59.9320381 L73.2210933,66.967814 M126.674147,104.981109 L126.674147,89.4327618" id="形状" stroke="url(#linearGradient-13)" stroke-width="4.0754717" opacity="0.68531436" stroke-linejoin="bevel"></path>
                                <polygon id="路径-6" fill="url(#linearGradient-14)" points="19.7680393 104.981109 0 93.9887596 0 28.9782215 19.9915052 38.7553127"></polygon>
                                <polygon id="路径-6" fill="url(#linearGradient-15)" opacity="0.663550967" points="19.7680393 39.4481253 6.82121026e-13 28.4557758 53.2295881 0.867436326 73.2210933 10.6445276"></polygon>
                            </g>
                        </g>
                    </g>
                </g>
            </g>
        </g>
    </g>
</svg>