<?xml version="1.0" encoding="UTF-8"?>
<svg width="238px" height="169px" viewBox="0 0 238 169" version="1.1" xmlns="http://www.w3.org/2000/svg" xmlns:xlink="http://www.w3.org/1999/xlink">
    <!-- Generator: Sketch 64 (93537) - https://sketch.com -->
    <title>处置预案库</title>
    <desc>Created with Sketch.</desc>
    <defs>
        <linearGradient x1="1.03894327%" y1="50.6784554%" x2="100%" y2="50%" id="linearGradient-1">
            <stop stop-color="#82EDFF" offset="0%"></stop>
            <stop stop-color="#41C8FF" offset="100%"></stop>
        </linearGradient>
        <linearGradient x1="11.8077181%" y1="46.2125528%" x2="101.643668%" y2="50%" id="linearGradient-2">
            <stop stop-color="#327DFF" offset="0%"></stop>
            <stop stop-color="#374CC1" offset="100%"></stop>
        </linearGradient>
        <linearGradient x1="11.8077181%" y1="46.2125528%" x2="101.643668%" y2="50%" id="linearGradient-3">
            <stop stop-color="#56C1FF" offset="0%"></stop>
            <stop stop-color="#516AE4" offset="100%"></stop>
        </linearGradient>
        <linearGradient x1="19.1584469%" y1="61.2395926%" x2="91.9424329%" y2="26.7855513%" id="linearGradient-4">
            <stop stop-color="#024586" stop-opacity="0.567580857" offset="0%"></stop>
            <stop stop-color="#182B89" stop-opacity="0.164690778" offset="100%"></stop>
        </linearGradient>
        <linearGradient x1="34.0123816%" y1="36.6084273%" x2="70.9304309%" y2="61.7129466%" id="linearGradient-5">
            <stop stop-color="#A0E3FF" offset="0%"></stop>
            <stop stop-color="#A6F1FD" offset="100%"></stop>
        </linearGradient>
        <linearGradient x1="31.3509459%" y1="7.54846762%" x2="66.962435%" y2="93.9313985%" id="linearGradient-6">
            <stop stop-color="#E4FFFC" offset="0%"></stop>
            <stop stop-color="#EDFFFB" offset="100%"></stop>
        </linearGradient>
    </defs>
    <g id="页面-1" stroke="none" stroke-width="1" fill="none" fill-rule="evenodd">
        <g id="屏4百信智能聚变引擎" transform="translate(-2281.000000, -1206.000000)">
            <g id="编组-4" transform="translate(904.000000, 874.000000)">
                <g id="编组-3" transform="translate(224.000000, 303.000000)">
                    <g id="编组-7备份-4" transform="translate(1152.000000, 29.000000)">
                        <g id="处置预案库">
                            <g id="社区服刑人员" transform="translate(0.000000, 39.528522)">
                                <g id="底座" transform="translate(0.000000, 0.573322)">
                                    <path d="M127.049627,5.63991442 L236.043789,63.6942405 C237.002645,64.2049625 237.365929,65.3962907 236.855207,66.3551464 C236.671391,66.7002526 236.388896,66.9827479 236.043789,67.1665642 L127.049627,125.22089 C122.425197,127.684033 116.878152,127.684033 112.253722,125.22089 L3.25955911,67.1665642 C2.3007034,66.6558422 1.93741928,65.464514 2.44814134,64.5056583 C2.63195767,64.1605521 2.91445293,63.8780568 3.25955911,63.6942405 L112.253722,5.63991442 C116.878152,3.17677162 122.425197,3.17677162 127.049627,5.63991442 Z" id="矩形" stroke="url(#linearGradient-1)" stroke-width="2.03773585"></path>
                                    <path d="M126.397147,9.14030623 L225.688445,61.9445332 C226.675035,62.4692125 227.049487,63.6943379 226.524807,64.6809274 C226.335551,65.0367988 226.044317,65.3280332 225.688445,65.5172896 L126.397147,118.321517 C121.645474,120.84851 115.948565,120.84851 111.196892,118.321517 L11.9055938,65.5172896 C10.9190044,64.9926102 10.5445523,63.7674848 11.0692316,62.7808954 C11.258488,62.425024 11.5497224,62.1337896 11.9055938,61.9445332 L111.196892,9.14030623 C115.948565,6.61331289 121.645474,6.61331289 126.397147,9.14030623 Z" id="矩形" fill="url(#linearGradient-2)"></path>
                                    <path d="M126.397147,4.04183332 L225.688445,56.8460603 C226.675035,57.3707396 227.049487,58.595865 226.524807,59.5824545 C226.335551,59.9383258 226.044317,60.2295603 225.688445,60.4188167 L126.397147,113.223044 C121.645474,115.750037 115.948565,115.750037 111.196892,113.223044 L11.9055938,60.4188167 C10.9190044,59.8941373 10.5445523,58.6690119 11.0692316,57.6824225 C11.258488,57.3265511 11.5497224,57.0353167 11.9055938,56.8460603 L111.196892,4.04183332 C115.948565,1.51483998 121.645474,1.51483998 126.397147,4.04183332 Z" id="矩形" fill="url(#linearGradient-3)"></path>
                                </g>
                            </g>
                            <g id="本子" transform="translate(130.639241, 61.500000) scale(-1, 1) translate(-130.639241, -61.500000) translate(90.139241, 0.000000)">
                                <polygon id="投影" fill="url(#linearGradient-4)" opacity="0.536132812" transform="translate(40.455696, 100.685858) scale(-1, 1) translate(-40.455696, -100.685858) " points="0 117.036553 72.3037975 79.1717855 80.9113924 84.3351628 8.60759494 122.19993"></polygon>
                                <path d="M63.591868,106.430898 L5.16455696,75.0178064 L5.16455696,70.7978467 C12.1201892,68.8098498 15.5980054,67.0997569 15.5980054,65.6675679 C15.5980054,63.9076352 14.2068789,42.702483 11.424626,2.0521115 L15.5980054,0 L74.0253165,31.4130914 C74.0253165,72.0343754 74.0253165,93.7130917 74.0253165,96.4492404 C74.0253165,99.1853891 70.5475003,102.512608 63.591868,106.430898 Z" id="矩形" fill="url(#linearGradient-5)"></path>
                                <path d="M63.591868,102.326675 L5.16455696,70.9135834 C9.33793633,68.7843141 11.424626,66.3516051 11.424626,63.6154564 C11.424626,60.8793078 11.424626,40.3581928 11.424626,2.0521115 L69.8519371,33.4652029 C69.8519371,71.3503382 69.8519371,91.6609802 69.8519371,94.3971289 C69.8519371,97.1332776 67.7652474,99.7764595 63.591868,102.326675 Z" id="矩形" fill="url(#linearGradient-6)"></path>
                                <polygon id="矩形" fill="#73B3DD" opacity="0.481933594" points="11.424626 12.312669 69.8519371 44.1203972 69.8519371 48.2246202 11.424626 16.416892"></polygon>
                                <polygon id="矩形" fill="#73B3DD" points="19.7713847 30.7816725 61.5051784 54.3809547 61.5051784 58.4851777 19.7713847 34.8858955"></polygon>
                                <polygon id="矩形" fill="#73B3DD" points="19.7713847 41.04223 61.5051784 64.6415122 61.5051784 68.7457352 19.7713847 45.146453"></polygon>
                                <polygon id="矩形" fill="#73B3DD" points="19.7713847 53.3548989 61.5051784 76.9541812 61.5051784 81.0584042 19.7713847 57.4591219"></polygon>
                            </g>
                        </g>
                    </g>
                </g>
            </g>
        </g>
    </g>
</svg>