<?xml version="1.0" encoding="UTF-8"?>
<svg width="39px" height="28px" viewBox="0 0 39 28" version="1.1" xmlns="http://www.w3.org/2000/svg" xmlns:xlink="http://www.w3.org/1999/xlink">
    <!-- Generator: Sketch 64 (93537) - https://sketch.com -->
    <title>形状</title>
    <desc>Created with Sketch.</desc>
    <defs>
        <path d="M35.0666493,16.6721973 C35.0664323,17.3909763 34.7795619,18.0802181 34.2691693,18.5882422 C33.7587767,19.0962663 33.0666875,19.381441 32.345209,19.3810089 L27.9083671,19.3810089 C26.9755766,19.3810089 26.050561,19.2116186 25.1787426,18.8811962 L22.591318,17.9005287 C21.0661893,17.3224039 19.7656822,16.2750954 18.8785703,14.9106241 L15.9938558,10.4734654 C15.6511011,9.92064254 15.1705081,9.46565421 14.5988644,9.15279516 C14.3617282,9.08450923 11.844892,7.6617158 9.29531918,6.37406736 L35.0997952,6.37406736 L35.0666493,16.6721973 L35.0666493,16.6721973 Z M6.88221707,2.94468675 C6.8818917,2.2170043 7.17176386,1.51900291 7.68805379,1.00426256 C8.20434373,0.489522207 8.90475117,0.200216194 9.63516674,0.2 L32.3783548,0.2 C33.8871061,0.217733958 35.100409,1.44158091 35.0999999,2.94448291 L35.0999999,3.8584952 L6.88221707,3.8584952 L6.88221707,2.94468675 Z M3.50297452,7.60036038 L12.5902651,11.8424455 C13.0447066,12.1034086 13.4269633,12.4727479 13.7026981,12.9172864 L17.0713015,17.538919 C17.0713015,17.538919 17.5173386,18.3304243 16.5937553,19.1537284 L16.2778464,19.3748933 C16.0136033,19.5426295 15.697716,19.6103298 15.3876136,19.5656862 C15.1381163,19.5365399 14.9098506,19.4116464 14.7512945,19.2175299 L12.6232064,16.3688854 C12.3856811,16.1495714 12.0244697,16.131574 11.7661654,16.3261832 C11.5078611,16.5207924 11.4268688,16.8719507 11.5739961,17.1593715 L13.7029027,20.0090352 C14.0572147,20.4963947 14.5973932,20.8168265 15.1963087,20.8949177 L15.6087907,20.8949177 C16.1300558,20.8977173 16.6399466,20.7431478 17.0713015,20.4515688 L17.3882334,20.2295885 C17.6968922,19.9975757 17.9565229,19.707121 18.1522254,19.3748933 L22.4081972,20.705144 C23.5863081,21.0200746 23.9664627,21.4966493 23.9979718,22.1921466 L23.9979718,22.8884592 C23.9979718,23.3002132 23.1719846,23.6799645 22.252698,23.5853834 L12.7195749,22.9206657 C12.3095415,22.922752 11.9018754,22.8586644 11.5124102,22.730892 C11.2147661,22.6343461 10.9430798,22.4715818 10.7179321,22.2549289 L6.61991477,17.0325839 L0.900409208,12.6009289 L3.50297452,7.60036038 L3.50297452,7.60036038 Z M0.9,12.6007251 L0.9,7.60036038 L3.50297452,7.60036038 L0.9,12.6007251 Z" id="path-1"></path>
        <filter x="-8.8%" y="-12.8%" width="117.5%" height="125.6%" filterUnits="objectBoundingBox" id="filter-2">
            <feOffset dx="0" dy="0" in="SourceAlpha" result="shadowOffsetOuter1"></feOffset>
            <feGaussianBlur stdDeviation="1" in="shadowOffsetOuter1" result="shadowBlurOuter1"></feGaussianBlur>
            <feColorMatrix values="0 0 0 0 0   0 0 0 0 0   0 0 0 0 0  0 0 0 0.5 0" type="matrix" in="shadowBlurOuter1"></feColorMatrix>
        </filter>
    </defs>
    <g id="页面-1" stroke="none" stroke-width="1" fill="none" fill-rule="evenodd">
        <g id="屏2" transform="translate(-740.000000, -270.000000)" fill-rule="nonzero">
            <g id="about/1/2备份" transform="translate(722.000000, 244.000000)">
                <g id="编组" transform="translate(19.500000, 28.000000)">
                    <g id="形状">
                        <use fill="black" fill-opacity="1" filter="url(#filter-2)" xlink:href="#path-1"></use>
                        <use fill="#FFFFFF" xlink:href="#path-1"></use>
                    </g>
                </g>
            </g>
        </g>
    </g>
</svg>