<?xml version="1.0" encoding="UTF-8"?>
<svg width="238px" height="199px" viewBox="0 0 238 199" version="1.1" xmlns="http://www.w3.org/2000/svg" xmlns:xlink="http://www.w3.org/1999/xlink">
    <!-- Generator: Sketch 64 (93537) - https://sketch.com -->
    <title>模型自主平台</title>
    <desc>Created with Sketch.</desc>
    <defs>
        <linearGradient x1="1.03894327%" y1="50.6783177%" x2="100%" y2="50%" id="linearGradient-1">
            <stop stop-color="#82EDFF" offset="0%"></stop>
            <stop stop-color="#41C8FF" offset="100%"></stop>
        </linearGradient>
        <linearGradient x1="11.8077181%" y1="46.2133219%" x2="101.643668%" y2="50%" id="linearGradient-2">
            <stop stop-color="#327DFF" offset="0%"></stop>
            <stop stop-color="#374CC1" stop-opacity="0.590144231" offset="100%"></stop>
        </linearGradient>
        <linearGradient x1="11.8077181%" y1="46.2133219%" x2="101.643668%" y2="50%" id="linearGradient-3">
            <stop stop-color="#56C1FF" offset="0%"></stop>
            <stop stop-color="#289AFF" offset="100%"></stop>
        </linearGradient>
        <linearGradient x1="78.3097031%" y1="114.596688%" x2="28.9453921%" y2="6.79583726%" id="linearGradient-4">
            <stop stop-color="#00C6FB" offset="0.54%"></stop>
            <stop stop-color="#00B6F8" offset="12.37%"></stop>
            <stop stop-color="#0085F1" offset="52.42%"></stop>
            <stop stop-color="#0066EC" offset="82.9%"></stop>
            <stop stop-color="#005BEA" offset="100%"></stop>
        </linearGradient>
        <linearGradient x1="-7.05006598%" y1="85.0574027%" x2="100%" y2="26.06735%" id="linearGradient-5">
            <stop stop-color="#005BEA" offset="0%"></stop>
            <stop stop-color="#0066EC" offset="17.1%"></stop>
            <stop stop-color="#0085F1" offset="47.58%"></stop>
            <stop stop-color="#0A48FF" stop-opacity="0.566815997" offset="100%"></stop>
        </linearGradient>
        <linearGradient x1="-8.54545357%" y1="50.6037758%" x2="138.029063%" y2="49.1042626%" id="linearGradient-6">
            <stop stop-color="#009FFC" offset="0.68%"></stop>
            <stop stop-color="#1595F4" offset="55.86%"></stop>
            <stop stop-color="#2090F0" offset="100%"></stop>
        </linearGradient>
        <linearGradient x1="-8.54500013%" y1="50.6040632%" x2="138.029257%" y2="49.104538%" id="linearGradient-7">
            <stop stop-color="#55FFB5" offset="0.54%"></stop>
            <stop stop-color="#6DFFCB" offset="58.8%"></stop>
            <stop stop-color="#78FFD6" offset="100%"></stop>
        </linearGradient>
        <linearGradient x1="13.1353878%" y1="-1.69789841%" x2="75.9506227%" y2="101.01209%" id="linearGradient-8">
            <stop stop-color="#005BEA" offset="0%"></stop>
            <stop stop-color="#00C6FB" offset="99.46%"></stop>
        </linearGradient>
        <linearGradient x1="40.0019297%" y1="20.1817558%" x2="58.1322205%" y2="99.1483768%" id="linearGradient-9">
            <stop stop-color="#009FFC" offset="0.68%"></stop>
            <stop stop-color="#1595F4" offset="55.86%"></stop>
            <stop stop-color="#2090F0" offset="100%"></stop>
        </linearGradient>
        <linearGradient x1="13.1353878%" y1="-1.69028871%" x2="75.9506227%" y2="101.019699%" id="linearGradient-10">
            <stop stop-color="#005BEA" offset="0%"></stop>
            <stop stop-color="#00C6FB" offset="99.46%"></stop>
        </linearGradient>
        <linearGradient x1="40.0019297%" y1="20.1897577%" x2="58.1322205%" y2="99.1575217%" id="linearGradient-11">
            <stop stop-color="#009FFC" offset="0.68%"></stop>
            <stop stop-color="#1595F4" offset="55.86%"></stop>
            <stop stop-color="#2090F0" offset="100%"></stop>
        </linearGradient>
        <linearGradient x1="86.8686094%" y1="-1.69599598%" x2="7.15698528%" y2="128.642901%" id="linearGradient-12">
            <stop stop-color="#005BEA" offset="0%"></stop>
            <stop stop-color="#006FED" offset="22.83%"></stop>
            <stop stop-color="#00A2F5" offset="69.2%"></stop>
            <stop stop-color="#00C6FB" offset="99.46%"></stop>
        </linearGradient>
        <linearGradient x1="59.9995068%" y1="20.1943301%" x2="41.8695032%" y2="99.1620942%" id="linearGradient-13">
            <stop stop-color="#009FFC" offset="0.68%"></stop>
            <stop stop-color="#1595F4" offset="55.86%"></stop>
            <stop stop-color="#2090F0" offset="100%"></stop>
        </linearGradient>
        <linearGradient x1="86.8686094%" y1="-1.69789841%" x2="4.10868%" y2="133.624399%" id="linearGradient-14">
            <stop stop-color="#005BEA" offset="0%"></stop>
            <stop stop-color="#00C6FB" offset="99.46%"></stop>
        </linearGradient>
        <linearGradient x1="59.9995068%" y1="20.1920439%" x2="41.8695032%" y2="99.159808%" id="linearGradient-15">
            <stop stop-color="#009FFC" offset="0.68%"></stop>
            <stop stop-color="#1595F4" offset="55.86%"></stop>
            <stop stop-color="#2090F0" offset="100%"></stop>
        </linearGradient>
        <linearGradient x1="26.1993785%" y1="50.0100379%" x2="126.174318%" y2="49.5316558%" id="linearGradient-16">
            <stop stop-color="#36BBC0" offset="0.54%"></stop>
            <stop stop-color="#78FFD6" offset="100%"></stop>
        </linearGradient>
        <linearGradient x1="41.5422013%" y1="43.6250866%" x2="94.1038492%" y2="58.6315005%" id="linearGradient-17">
            <stop stop-color="#55FFB5" offset="0.54%"></stop>
            <stop stop-color="#6DFFCB" offset="58.8%"></stop>
            <stop stop-color="#78FFD6" offset="100%"></stop>
        </linearGradient>
        <linearGradient x1="26.1993785%" y1="50.0104504%" x2="126.174318%" y2="49.5320684%" id="linearGradient-18">
            <stop stop-color="#36BBC0" offset="0.54%"></stop>
            <stop stop-color="#78FFD6" offset="100%"></stop>
        </linearGradient>
        <linearGradient x1="41.5422013%" y1="43.6239331%" x2="94.1038492%" y2="58.6301548%" id="linearGradient-19">
            <stop stop-color="#55FFB5" offset="0.54%"></stop>
            <stop stop-color="#6DFFCB" offset="58.8%"></stop>
            <stop stop-color="#78FFD6" offset="100%"></stop>
        </linearGradient>
        <linearGradient x1="27.1856872%" y1="-21.236328%" x2="90.7004357%" y2="178.391794%" id="linearGradient-20">
            <stop stop-color="#55FFB5" offset="0.54%"></stop>
            <stop stop-color="#6DFFCB" offset="58.8%"></stop>
            <stop stop-color="#78FFD6" offset="100%"></stop>
        </linearGradient>
        <linearGradient x1="27.1780653%" y1="-21.2463672%" x2="90.6928138%" y2="178.384391%" id="linearGradient-21">
            <stop stop-color="#55FFB5" offset="0.54%"></stop>
            <stop stop-color="#6DFFCB" offset="58.8%"></stop>
            <stop stop-color="#78FFD6" offset="100%"></stop>
        </linearGradient>
        <linearGradient x1="-0.000929238489%" y1="49.9983%" x2="99.9990708%" y2="49.9983%" id="linearGradient-22">
            <stop stop-color="#55FFB5" offset="0.54%"></stop>
            <stop stop-color="#6DFFCB" offset="58.8%"></stop>
            <stop stop-color="#78FFD6" offset="100%"></stop>
        </linearGradient>
        <linearGradient x1="-0.000929238489%" y1="49.9988667%" x2="99.9990708%" y2="49.9988667%" id="linearGradient-23">
            <stop stop-color="#55FFB5" offset="0.54%"></stop>
            <stop stop-color="#6DFFCB" offset="58.8%"></stop>
            <stop stop-color="#78FFD6" offset="100%"></stop>
        </linearGradient>
        <linearGradient x1="-269.704398%" y1="50.0019157%" x2="625.32324%" y2="50.0019157%" id="linearGradient-24">
            <stop stop-color="#005BEA" offset="0%"></stop>
            <stop stop-color="#0066EC" offset="17.1%"></stop>
            <stop stop-color="#0085F1" offset="47.58%"></stop>
            <stop stop-color="#00B6F8" offset="87.63%"></stop>
            <stop stop-color="#00C6FB" offset="99.46%"></stop>
        </linearGradient>
        <linearGradient x1="54.549512%" y1="69.521085%" x2="34.3887898%" y2="-16.1735467%" id="linearGradient-25">
            <stop stop-color="#52E5E7" offset="0.68%"></stop>
            <stop stop-color="#130CB7" offset="100%"></stop>
        </linearGradient>
        <linearGradient x1="65.1055877%" y1="101.071273%" x2="13.8501711%" y2="-71.5509942%" id="linearGradient-26">
            <stop stop-color="#52E5E7" offset="0.68%"></stop>
            <stop stop-color="#130CB7" offset="100%"></stop>
        </linearGradient>
        <polygon id="path-27" points="27.7843984 49.2392436 0.160754253 32.9982986 0.401885632 0.61940623 28.0248248 16.8603512"></polygon>
        <linearGradient x1="54.5464665%" y1="69.5242673%" x2="34.3859236%" y2="-16.1722991%" id="linearGradient-29">
            <stop stop-color="#52E5E7" offset="0.68%"></stop>
            <stop stop-color="#130CB7" offset="100%"></stop>
        </linearGradient>
        <linearGradient x1="37.0680248%" y1="127.130687%" x2="71.8224335%" y2="-80.0603253%" id="linearGradient-30">
            <stop stop-color="#52E5E7" offset="0.68%"></stop>
            <stop stop-color="#130CB7" offset="100%"></stop>
        </linearGradient>
        <linearGradient x1="49.3066824%" y1="92.3004237%" x2="50.5852444%" y2="-5.40159125%" id="linearGradient-31">
            <stop stop-color="#FFFFFF" offset="0%"></stop>
            <stop stop-color="#6AF9BE" stop-opacity="0.9711" offset="14.51%"></stop>
            <stop stop-color="#5AB1C6" stop-opacity="0" offset="100%"></stop>
        </linearGradient>
    </defs>
    <g id="页面-1" stroke="none" stroke-width="1" fill="none" fill-rule="evenodd">
        <g id="屏4百信智能聚变引擎" transform="translate(-2569.000000, -1177.000000)">
            <g id="编组-4" transform="translate(904.000000, 874.000000)">
                <g id="编组-3" transform="translate(224.000000, 303.000000)">
                    <g id="编组-7备份-5" transform="translate(1440.000000, 0.000000)">
                        <g id="模型自主平台">
                            <g id="底座" transform="translate(0.000000, 69.903286)">
                                <path d="M127.397367,5.64397712 L236.740037,63.8780174 C237.698914,64.388699 238.062248,65.5800119 237.551567,66.5388891 C237.367738,66.8840529 237.085201,67.1665907 236.740037,67.350419 L127.397367,125.584459 C122.773248,128.047187 117.226752,128.047187 112.602633,125.584459 L3.25996325,67.350419 C2.30108602,66.8397374 1.93775172,65.6484245 2.44843337,64.6895473 C2.63226171,64.3443835 2.91479948,64.0618457 3.25996325,63.8780174 L112.602633,5.64397712 C117.226752,3.18124987 122.773248,3.18124987 127.397367,5.64397712 Z" id="矩形" stroke="url(#linearGradient-1)" stroke-width="2.03773585"></path>
                                <path d="M126.742383,9.15389927 L226.354824,62.1235346 C227.341435,62.6481724 227.715939,63.873282 227.191301,64.8598936 C227.002032,65.2158242 226.710754,65.5071023 226.354824,65.696371 L126.742383,118.666006 C121.991029,121.192573 116.294685,121.192573 111.543331,118.666006 L11.9308905,65.696371 C10.944279,65.1717332 10.5697753,63.9466235 11.0944131,62.960012 C11.2836818,62.6040814 11.5749599,62.3128033 11.9308905,62.1235346 L111.543331,9.15389927 C116.294685,6.62733246 121.991029,6.62733246 126.742383,9.15389927 Z" id="矩形" fill="url(#linearGradient-2)"></path>
                                <path d="M126.742383,4.04110304 L226.354824,57.0107384 C227.341435,57.5353762 227.715939,58.7604858 227.191301,59.7470973 C227.002032,60.103028 226.710754,60.3943061 226.354824,60.5835747 L126.742383,113.55321 C121.991029,116.079777 116.294685,116.079777 111.543331,113.55321 L11.9308905,60.5835747 C10.944279,60.0589369 10.5697753,58.8338273 11.0944131,57.8472158 C11.2836818,57.4912852 11.5749599,57.2000071 11.9308905,57.0107384 L111.543331,4.04110304 C116.294685,1.51453624 121.991029,1.51453624 126.742383,4.04110304 Z" id="矩形" fill="url(#linearGradient-3)"></path>
                            </g>
                            <g id="Group备份" transform="translate(61.512605, 0.000000)">
                                <g id="Group" transform="translate(0.787047, 73.874137)" fill-rule="nonzero">
                                    <g id="XMLID_1092_">
                                        <g id="XMLID_1093_">
                                            <g id="XMLID_1097_" transform="translate(0.000000, 31.964771)" fill="url(#linearGradient-4)">
                                                <path d="M61.119754,34.6533634 L63.8582168,58.1467598 L63.8582168,58.1467598 C62.1667719,59.1532949 60.0678008,59.1596879 58.3707153,58.164518 L2.7441033,25.5455347 C1.1718139,24.6235286 0.205173191,22.9293957 0.205173191,21.0967489 L0.205173191,0.559028329 L61.119754,34.6533634 Z" id="XMLID_1098_"></path>
                                            </g>
                                            <g id="XMLID_1095_" transform="translate(60.635376, 34.095756)" fill="url(#linearGradient-5)">
                                                <path d="M57.5415618,0.27134539 L57.5415618,20.7557913 C57.5415618,22.5763626 56.5869072,24.2619715 55.0308342,25.1875292 L3.13541299,56.0683394 C1.96430416,56.7651714 0.484377946,55.9149085 0.484377946,54.5439749 L0.484377946,30.8104876 L57.5415618,0.27134539 Z" id="XMLID_1096_"></path>
                                            </g>
                                            <path d="M117.328748,36.0747302 L64.4159213,67.6346142 C62.0264644,69.060243 59.0574462,69.0666359 56.6616438,67.6509517 L1.36288584,34.9872177 C-0.203763066,34.06166 -0.174150441,31.7701411 1.41506046,30.8857824 L55.3114491,0.984514947 C57.7453249,-0.369370687 60.7178684,-0.284131298 63.0713671,1.20755802 L117.369641,33.1020065 C118.463193,33.7959972 118.442041,35.4105733 117.328748,36.0747302 Z" id="XMLID_1094_" fill="url(#linearGradient-6)"></path>
                                        </g>
                                    </g>
                                    <path d="M108.792556,35.0973186 L63.6488133,62.023021 C61.6097725,63.239103 59.0771879,63.2447856 57.0332117,62.0372276 L9.85324862,34.1696299 C8.51645009,33.3804552 8.54183234,31.4249216 9.89766755,30.670553 L55.8804345,5.15911404 C57.9568436,4.00412032 60.4929535,4.0765738 62.5009715,5.34948201 L108.826399,32.5614467 C109.760607,33.1538605 109.742275,34.531187 108.792556,35.0973186 Z" id="XMLID_1091_" fill="url(#linearGradient-7)" opacity="0"></path>
                                    <path d="M45.1331666,60.8410348 C45.1331666,60.8410348 47.0840746,61.9690361 50.010084,63.6617483 C51.4681533,64.5162732 53.1701742,65.5128637 54.9927608,66.5811974 C55.4482312,66.8482808 55.9121623,67.1196262 56.3810289,67.3945232 C56.8527157,67.6843371 57.3159418,67.9379243 57.8383931,68.1268716 C58.863554,68.5118695 59.9874237,68.6972652 61.0943718,68.6020812 C62.202025,68.5246555 63.2864111,68.1808566 64.2382455,67.6331935 C65.1936052,67.0713239 66.1341586,66.5179782 67.0443943,65.9823907 C68.8627506,64.9069537 70.559836,63.9025496 72.0150851,63.0423421 C74.9340439,61.3375543 76.8800164,60.2010291 76.8800164,60.2010291 C76.8800164,60.2010291 74.9551957,61.3730707 72.0672597,63.1318434 C70.6183562,64.0027059 68.9283214,65.0191856 67.1177208,66.1081188 C66.2110105,66.6508095 65.2732773,67.2112585 64.3207379,67.7809418 C63.3548022,68.3463631 62.2450338,68.7093408 61.108473,68.7952905 C59.9712072,68.8840815 58.8226604,68.6859 57.7791679,68.2852748 C57.2574216,68.0949069 56.7554171,67.8136169 56.302767,67.5301959 C55.8360156,67.2517472 55.3741996,66.9775605 54.9201394,66.7069255 C53.1046034,65.6258059 51.4103382,64.6171398 49.9579094,63.75196 C47.0629227,62.0052628 45.1331666,60.8410348 45.1331666,60.8410348 Z" id="Shape" fill="#DCCAFF"></path>
                                    <g transform="translate(66.275876, 68.191512)" id="Shape">
                                        <g>
                                            <path d="M0.537962697,8.11407954 C0.537962697,8.11407954 4.48490264,6.561302 6.44779668,4.16110286 C7.28470588,3.13751986 6.891281,0.463844344 4.89172371,0.656343298 C4.08301701,0.734479405 2.69122361,0.908509825 0.537962697,1.90012806 L0.537962697,8.11407954 Z" fill="url(#linearGradient-8)"></path>
                                            <path d="M0.537962697,3.34280472 L0.537962697,1.90083838 C0.537962697,1.90083838 4.07808157,5.00781413 0.537962697,8.11478987 L0.537962697,3.34280472 Z" fill="url(#linearGradient-9)"></path>
                                        </g>
                                        <g transform="translate(0.000000, 7.813611)">
                                            <path d="M0.537962697,7.87967122 C0.537962697,7.87967122 4.48490264,6.32689368 6.44779668,3.92669454 C7.28470588,2.90311154 6.891281,0.229436023 4.89172371,0.421934977 C4.08301701,0.500071084 2.69122361,0.674101504 0.537962697,1.66571973 L0.537962697,7.87967122 Z" fill="url(#linearGradient-10)"></path>
                                            <path d="M0.537962697,3.1083964 L0.537962697,1.66643006 C0.537962697,1.66643006 4.07808157,4.77340581 0.537962697,7.88038155 L0.537962697,3.1083964 Z" fill="url(#linearGradient-11)"></path>
                                        </g>
                                    </g>
                                    <g transform="translate(47.944251, 68.191512)" id="Shape">
                                        <g>
                                            <path d="M6.39985243,8.17019547 C6.39985243,8.17019547 2.45291248,6.61741793 0.490018446,4.21721879 C-0.346890756,3.19363579 0.0465341258,0.519960275 2.04609141,0.71245923 C2.85479811,0.790595337 4.24659151,0.964625757 6.39985243,1.95624399 L6.39985243,8.17019547 Z" fill="url(#linearGradient-12)"></path>
                                            <path d="M6.39985243,3.39892065 L6.39985243,1.95624399 C6.39985243,1.95624399 2.85973355,5.06321973 6.39985243,8.17019547 L6.39985243,3.39892065 Z" fill="url(#linearGradient-13)"></path>
                                        </g>
                                        <g transform="translate(0.000000, 7.813611)">
                                            <path d="M6.39985243,7.93649748 C6.39985243,7.93649748 2.45291248,6.38371994 0.490018446,3.9835208 C-0.346890756,2.9599378 0.0465341258,0.286262283 2.04609141,0.478761237 C2.85479811,0.556897344 4.24659151,0.730927764 6.39985243,1.72254599 L6.39985243,7.93649748 Z" fill="url(#linearGradient-14)"></path>
                                            <path d="M6.39985243,3.16522266 L6.39985243,1.72254599 C6.39985243,1.72254599 2.85973355,4.82952174 6.39985243,7.93649748 L6.39985243,3.16522266 Z" fill="url(#linearGradient-15)"></path>
                                        </g>
                                    </g>
                                    <g transform="translate(52.879688, 71.032824)" id="Shape">
                                        <g transform="translate(0.000000, 7.813611)">
                                            <path d="M1.40941996,0.386418565 L3.79605657,1.79642013 C6.19185899,3.211394 9.16087723,3.20500104 11.5503341,1.78008258 L13.9334454,0.358715764 L14.6822218,0.706066275 L11.9338881,3.32149487 L6.21512605,4.18951599 L3.43929494,3.05654244 L0.614814511,0.725955466 L1.40941996,0.386418565 Z" fill="url(#linearGradient-16)"></path>
                                            <path d="M14.6829268,0.705355947 L11.5362328,2.57707087 C9.14677598,4.00269966 6.17775774,4.00838229 3.78195532,2.59340842 L0.615519574,0.725245138 L0.615519574,3.13396822 L3.78195532,5.00426249 C6.17775774,6.41923635 9.14677598,6.4128434 11.5362328,4.98792494 L14.6829268,3.11123771 L14.6829268,0.705355947 Z" fill="url(#linearGradient-17)"></path>
                                        </g>
                                        <g>
                                            <path d="M1.40941996,0.581758833 L3.79605657,1.9917604 C6.19185899,3.40673426 9.16087723,3.40034131 11.5503341,1.97542285 L13.9334454,0.554056031 L14.6822218,0.901406543 L11.9338881,3.51683514 L6.21512605,4.38485626 L3.43929494,3.25188271 L0.614814511,0.921295734 L1.40941996,0.581758833 Z" fill="url(#linearGradient-18)"></path>
                                            <path d="M14.6829268,0.901406543 L11.5362328,2.77312147 C9.14677598,4.19803993 6.17775774,4.20443288 3.78195532,2.78945902 L0.615519574,0.921295734 L0.615519574,3.33001881 L3.78195532,5.20031308 C6.17775774,6.61528694 9.14677598,6.60889399 11.5362328,5.18397553 L14.6829268,3.30728831 L14.6829268,0.901406543 Z" fill="url(#linearGradient-19)"></path>
                                        </g>
                                    </g>
                                    <g transform="translate(17.626563, 54.695275)" id="Shape">
                                        <path d="M5.43673704,4.71586922 C5.43673704,6.25088856 4.36081164,6.86887413 3.03317893,6.09674733 C1.70554622,5.32462052 0.629620824,3.45432625 0.629620824,1.91930692 C0.629620824,0.38428758 1.70554622,-0.233697993 3.03317893,0.53842881 C4.36010658,1.31126594 5.43673704,3.18156021 5.43673704,4.71586922 Z" fill="url(#linearGradient-20)"></path>
                                        <path d="M13.7959582,9.67538102 C13.7959582,11.2104004 12.7200328,11.8283859 11.3924001,11.0562591 C10.0647674,10.2841323 8.98884198,8.41383806 8.98884198,6.87881872 C8.98884198,5.34379939 10.0647674,4.72581381 11.3924001,5.49794062 C12.7200328,6.27006742 13.7959582,8.14107201 13.7959582,9.67538102 Z" fill="#987EF5"></path>
                                        <path d="M22.0797377,14.568122 C22.0797377,16.1031413 21.0038123,16.7211269 19.6761795,15.9490001 C18.3485468,15.1768733 17.2726214,13.306579 17.2726214,11.7715597 C17.2726214,10.2365403 18.3485468,9.61855476 19.6761795,10.3906816 C21.0031072,11.1628084 22.0797377,13.0331026 22.0797377,14.568122 Z" fill="url(#linearGradient-21)"></path>
                                    </g>
                                    <g transform="translate(84.607502, 52.564290)" id="Shape">
                                        <g>
                                            <polygon fill="url(#linearGradient-22)" points="15.2885755 3.72851296 0.113515065 12.5557621 0.113515065 8.84713829 15.2885755 0.0205995191"></polygon>
                                            <polygon fill="url(#linearGradient-23)" points="15.2885755 10.8033823 0.113515065 19.6306314 0.113515065 15.9220076 15.2885755 7.09546884"></polygon>
                                        </g>
                                        <polygon fill="url(#linearGradient-24)" opacity="0.2" points="15.2885755 3.72851296 12.3548104 1.72680796 15.2885755 0.0205995191"></polygon>
                                        <polygon fill="url(#linearGradient-24)" opacity="0.2" points="15.2885755 10.8033823 12.3548104 8.80167728 15.2885755 7.09546884"></polygon>
                                    </g>
                                </g>
                                <g id="Group" opacity="0.4" transform="translate(33.219922, 90.211687)" fill="url(#linearGradient-25)" fill-rule="nonzero">
                                    <polygon id="Shape" points="0.281319943 14.7897444 26.2741545 0.029123458 53.8977987 16.2693581 27.9049641 31.0299791"></polygon>
                                </g>
                                <g id="Group" transform="translate(33.219922, 31.254443)">
                                    <g transform="translate(0.000000, 14.206565)">
                                        <polygon id="Shape" fill="url(#linearGradient-26)" fill-rule="nonzero" points="27.7843984 49.2392436 0.160754253 32.9982986 0.401885632 0.61940623 28.0248248 16.8603512"></polygon>
                                        <g id="Clipped">
                                            <mask id="mask-28" fill="white">
                                                <use xlink:href="#path-27"></use>
                                            </mask>
                                            <g id="SVGID_354_"></g>
                                        </g>
                                    </g>
                                    <polygon id="Shape" fill="url(#linearGradient-29)" fill-rule="nonzero" points="0.401885632 14.8259711 26.3947202 0.0653501985 54.0183644 16.3062952 28.0248248 31.0669161"></polygon>
                                    <polygon id="Shape" fill="url(#linearGradient-30)" fill-rule="nonzero" points="28.0248248 31.0669161 54.0183644 16.3062952 53.777233 48.6851876 27.7843984 63.4458085"></polygon>
                                </g>
                                <path d="M109.560566,108.973587 L64.4168231,135.899289 C64.4168231,135.899289 61.4626112,138.076446 57.8012216,135.913496 L10.6212585,108.045898 C10.6212585,108.045898 9.72935438,107.676528 9.63840131,106.400778 L9.63628612,0.499360756 L110.28255,1.59752822 L110.284665,107.515993 C110.28396,107.516704 110.567395,108.37336 109.560566,108.973587 Z" id="Shape" fill="url(#linearGradient-31)" fill-rule="nonzero" opacity="0.384951637"></path>
                                <g id="Group" opacity="0.7" transform="translate(33.219922, 31.254443)" fill="#F3FFFF" fill-rule="nonzero">
                                    <ellipse id="Oval" cx="12.700291" cy="79.0957604" rx="1.27827834" ry="1.27717018"></ellipse>
                                    <ellipse id="Oval" cx="1.84937897" cy="47.8150355" rx="1.27827834" ry="1.27717018"></ellipse>
                                    <ellipse id="Oval" cx="24.1617873" cy="28.0721722" rx="1.27827834" ry="1.27717018"></ellipse>
                                    <ellipse id="Oval" cx="46.6969953" cy="78.8798206" rx="1.27827834" ry="1.27717018"></ellipse>
                                    <ellipse id="Oval" cx="19.3017914" cy="1.82199195" rx="1.27827834" ry="1.27717018"></ellipse>
                                    <ellipse id="Oval" cx="59.8753187" cy="23.8798149" rx="1.27827834" ry="1.27717018"></ellipse>
                                    <ellipse id="Oval" cx="44.6586596" cy="54.6150078" rx="1.27827834" ry="1.27717018"></ellipse>
                                </g>
                            </g>
                        </g>
                    </g>
                </g>
            </g>
        </g>
    </g>
</svg>