<?xml version="1.0" encoding="UTF-8"?>
<svg width="238px" height="181px" viewBox="0 0 238 181" version="1.1" xmlns="http://www.w3.org/2000/svg" xmlns:xlink="http://www.w3.org/1999/xlink">
    <!-- Generator: Sketch 64 (93537) - https://sketch.com -->
    <title>重点人员电子档案平台</title>
    <desc>Created with Sketch.</desc>
    <defs>
        <linearGradient x1="1.03894327%" y1="50.6907705%" x2="100%" y2="50%" id="linearGradient-1">
            <stop stop-color="#82EDFF" offset="0%"></stop>
            <stop stop-color="#41C8FF" offset="100%"></stop>
        </linearGradient>
        <linearGradient x1="11.8077181%" y1="46.1438045%" x2="101.643668%" y2="50%" id="linearGradient-2">
            <stop stop-color="#327DFF" offset="0%"></stop>
            <stop stop-color="#374CC1" offset="100%"></stop>
        </linearGradient>
        <linearGradient x1="11.8077181%" y1="46.1438045%" x2="101.643668%" y2="50%" id="linearGradient-3">
            <stop stop-color="#56C1FF" offset="0%"></stop>
            <stop stop-color="#516AE4" offset="100%"></stop>
        </linearGradient>
        <linearGradient x1="110.129954%" y1="31.6388818%" x2="5.53553063%" y2="64.1376394%" id="linearGradient-4">
            <stop stop-color="#2F72D7" stop-opacity="0" offset="0%"></stop>
            <stop stop-color="#3179DA" stop-opacity="0.593476836" offset="100%"></stop>
        </linearGradient>
        <linearGradient x1="13.4768235%" y1="7.24658277%" x2="62.7823933%" y2="55.6285135%" id="linearGradient-5">
            <stop stop-color="#3869DF" stop-opacity="0" offset="0%"></stop>
            <stop stop-color="#078AF1" offset="100%"></stop>
        </linearGradient>
        <linearGradient x1="50%" y1="0%" x2="50%" y2="100%" id="linearGradient-6">
            <stop stop-color="#40B2F5" offset="0%"></stop>
            <stop stop-color="#1E7AE8" offset="100%"></stop>
        </linearGradient>
        <linearGradient x1="48.65703%" y1="22.7802998%" x2="44.1046867%" y2="100%" id="linearGradient-7">
            <stop stop-color="#E9D75E" offset="0%"></stop>
            <stop stop-color="#F3A35A" offset="100%"></stop>
        </linearGradient>
        <linearGradient x1="60.4018958%" y1="70.960701%" x2="30.3287179%" y2="11.6767608%" id="linearGradient-8">
            <stop stop-color="#F36284" offset="0%"></stop>
            <stop stop-color="#FE7678" offset="100%"></stop>
        </linearGradient>
        <linearGradient x1="60.4018958%" y1="70.960701%" x2="30.3287179%" y2="11.6767608%" id="linearGradient-9">
            <stop stop-color="#01AA79" offset="0%"></stop>
            <stop stop-color="#00A14F" offset="100%"></stop>
        </linearGradient>
    </defs>
    <g id="页面-1" stroke="none" stroke-width="1" fill="none" fill-rule="evenodd">
        <g id="屏4百信智能聚变引擎" transform="translate(-1129.000000, -1194.000000)">
            <g id="编组-4" transform="translate(904.000000, 874.000000)">
                <g id="编组-3" transform="translate(224.000000, 303.000000)">
                    <g id="编组-7" transform="translate(0.000000, 17.000000)">
                        <g id="重点人员电子档案平台">
                            <g id="底座" transform="translate(0.000000, 51.187045)">
                                <path d="M127.503079,5.75236307 L236.753059,64.4686989 C237.716833,64.9866784 238.07822,66.1878765 237.560241,67.15165 C237.376203,67.4940781 237.095487,67.7747937 236.753059,67.9588315 L127.503079,126.675167 C122.817921,129.193202 117.182079,129.193202 112.496921,126.675167 L3.24694067,67.9588315 C2.28316717,67.440852 1.92177972,66.2396539 2.4397592,65.2758804 C2.62379696,64.9334523 2.90451259,64.6527367 3.24694067,64.4686989 L112.496921,5.75236307 C117.182079,3.23432805 122.817921,3.23432805 127.503079,5.75236307 Z" id="矩形" stroke="url(#linearGradient-1)" stroke-width="2.03773585"></path>
                                <path d="M126.851021,9.29583931 L226.368227,62.6983783 C227.359882,63.230516 227.732394,64.4657934 227.200256,65.4574476 C227.010763,65.8105727 226.721353,66.0999834 226.368227,66.289476 L126.851021,119.692015 C122.036913,122.275343 116.248801,122.275343 111.434693,119.692015 L11.9174868,66.289476 C10.9258326,65.7573383 10.5533208,64.5220609 11.0854584,63.5304066 C11.2749511,63.1772816 11.5643617,62.8878709 11.9174868,62.6983783 L111.434693,9.29583931 C116.248801,6.71251129 122.036913,6.71251129 126.851021,9.29583931 Z" id="矩形" fill="url(#linearGradient-2)"></path>
                                <path d="M126.851021,4.13632514 L226.368227,57.5388641 C227.359882,58.0710018 227.732394,59.3062792 227.200256,60.2979334 C227.010763,60.6510585 226.721353,60.9404692 226.368227,61.1299618 L126.851021,114.532501 C122.036913,117.115829 116.248801,117.115829 111.434693,114.532501 L11.9174868,61.1299618 C10.9258326,60.5978241 10.5533208,59.3625467 11.0854584,58.3708925 C11.2749511,58.0177674 11.5643617,57.7283567 11.9174868,57.5388641 L111.434693,4.13632514 C116.248801,1.55299712 122.036913,1.55299712 126.851021,4.13632514 Z" id="矩形" fill="url(#linearGradient-3)"></path>
                            </g>
                            <g id="编组-3" transform="translate(119.327731, 67.000000) scale(-1, 1) translate(-119.327731, -67.000000) translate(79.327731, 0.000000)">
                                <polygon id="投影" fill="url(#linearGradient-4)" points="3.02521008 128.827939 71.5966387 93.128972 79.0588235 97.8605017 10.487395 133.559469"></polygon>
                                <polygon id="矩形" fill="url(#linearGradient-5)" transform="translate(38.135511, 62.205358) scale(-1, 1) translate(-38.135511, -62.205358) " points="10.0040234 2.36752554e-13 76.271021 35.2842711 76.271021 118.454339 66.2669976 124.410716 2.94519989 86.2016466 1.1937118e-12 5.95637743"></polygon>
                                <polygon id="矩形" fill="#D1F2FF" transform="translate(43.137522, 65.183547) scale(-1, 1) translate(-43.137522, -65.183547) " points="10.0040234 5.95637743 76.271021 41.2406485 76.271021 124.410716 10.0040234 89.1264451"></polygon>
                                <polygon id="矩形" fill="#7CDAFF" transform="translate(43.873822, 61.527549) scale(-1, 1) translate(-43.873822, -61.527549) " points="15.8944232 14.7307729 71.8532212 44.5077107 71.8532212 108.324324 15.8944232 78.5473867"></polygon>
                                <polygon id="矩形" fill="#E7F8FF" opacity="0.632161458" transform="translate(54.922968, 33.270296) scale(-1, 1) translate(-54.922968, -33.270296) " points="43.5421597 25.2270998 66.3037754 37.0793111 66.3037754 41.3134915 43.5490369 29.4648613"></polygon>
                                <polygon id="矩形" fill="#E7F8FF" opacity="0.632161458" transform="translate(54.922968, 40.582292) scale(-1, 1) translate(-54.922968, -40.582292) " points="43.5421597 32.539096 66.3037754 44.3913074 66.3037754 48.6254877 43.5490369 36.7768575"></polygon>
                                <polygon id="矩形" fill="#E7F8FF" opacity="0.632161458" transform="translate(54.922968, 47.894288) scale(-1, 1) translate(-54.922968, -47.894288) " points="43.5421597 39.8510923 66.3037754 51.7033036 66.3037754 55.9374839 43.5490369 44.0888537"></polygon>
                                <polygon id="矩形" fill="#E7F8FF" opacity="0.632161458" transform="translate(30.620423, 52.597477) scale(-1, 1) translate(-30.620423, -52.597477) " points="23.2574229 39.59156 37.9834224 47.6549722 37.9834224 65.6033948 23.2574229 57.5399827"></polygon>
                                <polygon id="矩形" fill="#E7F8FF" opacity="0.632161458" transform="translate(54.922968, 63.721148) scale(-1, 1) translate(-54.922968, -63.721148) " points="43.5421597 55.6779517 66.3037754 67.530163 66.3037754 71.7643434 43.5490369 59.9157132"></polygon>
                                <polygon id="矩形" fill="#E7F8FF" opacity="0.632161458" transform="translate(54.922968, 71.033144) scale(-1, 1) translate(-54.922968, -71.033144) " points="43.5421597 62.9899479 66.3037754 74.8421592 66.3037754 79.0763396 43.5490369 67.2277094"></polygon>
                                <polygon id="矩形" fill="#E7F8FF" opacity="0.632161458" transform="translate(54.922968, 78.345140) scale(-1, 1) translate(-54.922968, -78.345140) " points="43.5421597 70.3019442 66.3037754 82.1541555 66.3037754 86.3883358 43.5490369 74.5397056"></polygon>
                                <polygon id="矩形" fill="#E7F8FF" opacity="0.632161458" transform="translate(30.620423, 83.048329) scale(-1, 1) translate(-30.620423, -83.048329) " points="23.2574229 70.0424119 37.9834224 78.1058241 37.9834224 96.0542467 23.2574229 87.9908346"></polygon>
                                <path d="M46.0827221,101.860621 C48.1159583,100.713798 49.764222,98.147269 49.764222,96.128117 C49.764222,94.108965 48.1159583,93.4018022 46.0827221,94.5486247 C44.0494859,95.6954472 42.4012222,98.2619766 42.4012222,100.281129 C42.4012222,102.300281 44.0494859,103.007443 46.0827221,101.860621 Z" id="椭圆形" fill="#5FA8E2"></path>
                                <polygon id="路径-5" fill="url(#linearGradient-6)" points="0 35.2842711 10.0040234 41.2406485 10.0040234 72.3680857 0 70.3192856"></polygon>
                            </g>
                            <path d="M126,130.357895 C129.313708,130.357895 132,133.052887 132,136.377328 C132,139.701769 127.255562,147.556275 126,147.556275 C124.744438,147.556275 120,139.701769 120,136.377328 C120,133.052887 122.686292,130.357895 126,130.357895 Z M126,133.797571 C124.579839,133.797571 123.428571,134.952567 123.428571,136.377328 C123.428571,137.802088 124.579839,138.957085 126,138.957085 C127.420161,138.957085 128.571429,137.802088 128.571429,136.377328 C128.571429,134.952567 127.420161,133.797571 126,133.797571 Z" id="形状结合" fill="url(#linearGradient-7)"></path>
                            <path d="M83.6470588,100.042105 C86.9607673,100.042105 89.6470588,102.737097 89.6470588,106.061538 C89.6470588,109.38598 84.9026206,117.240486 83.6470588,117.240486 C82.391497,117.240486 77.6470588,109.38598 77.6470588,106.061538 C77.6470588,102.737097 80.3333503,100.042105 83.6470588,100.042105 Z M83.6470588,103.481781 C82.226898,103.481781 81.0756303,104.636778 81.0756303,106.061538 C81.0756303,107.486299 82.226898,108.641296 83.6470588,108.641296 C85.0672196,108.641296 86.2184874,107.486299 86.2184874,106.061538 C86.2184874,104.636778 85.0672196,103.481781 83.6470588,103.481781 Z" id="形状结合" fill="url(#linearGradient-8)"></path>
                            <path d="M170.369748,89.9368421 C173.683456,89.9368421 176.369748,92.6318341 176.369748,95.9562753 C176.369748,99.2807165 171.62531,107.135223 170.369748,107.135223 C169.114186,107.135223 164.369748,99.2807165 164.369748,95.9562753 C164.369748,92.6318341 167.056039,89.9368421 170.369748,89.9368421 Z M170.369748,93.3765182 C168.949587,93.3765182 167.798319,94.5315148 167.798319,95.9562753 C167.798319,97.3810358 168.949587,98.5360324 170.369748,98.5360324 C171.789909,98.5360324 172.941176,97.3810358 172.941176,95.9562753 C172.941176,94.5315148 171.789909,93.3765182 170.369748,93.3765182 Z" id="形状结合" fill="url(#linearGradient-9)"></path>
                        </g>
                    </g>
                </g>
            </g>
        </g>
    </g>
</svg>