<?xml version="1.0" standalone="no"?><!DOCTYPE svg PUBLIC "-//W3C//DTD SVG 1.1//EN" "http://www.w3.org/Graphics/SVG/1.1/DTD/svg11.dtd"><svg t="1594176258939" class="icon" viewBox="0 0 1024 1024" version="1.1" xmlns="http://www.w3.org/2000/svg" p-id="6313" xmlns:xlink="http://www.w3.org/1999/xlink" width="200" height="200"><defs><style type="text/css"></style></defs><path d="M512 1024C229.229714 1024 0 794.733714 0 511.963429 0 229.193143 229.229714-0.036571 512-0.036571 794.770286-0.036571 1024 229.193143 1024 511.963429 1024 794.733714 794.770286 1024 512 1024ZM512 73.142857C269.641143 73.142857 73.142857 269.641143 73.142857 512 73.142857 754.358857 269.641143 950.857143 512 950.857143 754.358857 950.857143 950.857143 754.358857 950.857143 512 950.857143 269.641143 754.358857 73.142857 512 73.142857ZM746.971429 652.141714C738.779429 703.085714 727.661714 731.172571 710.656 744.630857 697.782857 755.163429 677.888 759.259429 642.779429 759.259429 629.906286 759.259429 616.996571 758.674286 580.717714 756.333714 578.377143 731.757714 574.281143 715.958857 564.333714 690.212571 595.931429 694.893714 624.64 697.819429 643.949714 697.819429 665.014857 697.819429 670.866286 693.723429 677.302857 676.754286 690.761143 636.928 697.782857 534.491429 698.368 369.408L524.507429 369.408C505.782857 403.382857 485.302857 429.129143 448.438857 463.652571 437.284571 449.024 430.262857 440.832 421.485714 432.054857L421.485714 438.491429C408.612571 437.321143 399.250286 436.736 380.525714 436.736L372.918857 436.736 372.918857 587.776C405.686857 573.696 407.442286 573.110857 433.188571 559.652571L434.358857 622.299429C392.228571 643.364571 347.136 662.089143 299.739429 679.68 268.726857 690.797714 268.141714 691.382857 252.306286 697.819429L237.677714 631.661714C252.891429 629.906286 273.993143 624.054857 310.272 611.766857L310.272 436.736 293.302857 436.736C269.897143 436.736 258.157714 437.321143 242.944 439.661714L242.944 375.259429C256.987429 377.6 271.067429 378.770286 293.302857 378.770286L310.272 378.770286 310.272 295.643429C310.272 266.971429 309.686857 252.928 306.761143 233.618286L376.429714 233.618286C373.504 252.928 372.918857 265.216 372.918857 295.058286L372.918857 378.770286 382.866286 378.770286C403.931429 378.770286 412.123429 378.185143 421.485714 376.429714L421.485714 400.420571C453.705143 369.408 470.674286 344.246857 488.813714 301.494857 495.835429 285.696 502.272 265.801143 508.123429 243.565714 508.708571 240.054857 508.708571 240.054857 509.878857 231.862857 510.464 228.937143 510.464 228.352 511.634286 224.841143L580.717714 240.054857C577.792 245.906286 577.206857 247.661714 573.110857 258.779429 568.429714 273.408 558.482286 299.739429 554.971429 307.931429L710.070857 307.931429C731.172571 307.931429 752.822857 306.761143 763.940571 305.590857 762.185143 319.670857 761.6 328.448 761.6 357.12 761.6 494.116571 756.918857 588.946286 746.971429 652.141714ZM535.661714 404.553143C581.888 434.395429 609.974857 454.875429 642.779429 482.962286L605.293714 528.64C567.844571 494.701714 541.513143 474.770286 499.931429 447.853714L535.661714 404.553143ZM645.12 526.299429 657.408 584.850286C607.634286 617.618286 544.438857 652.726857 502.272 670.866286 494.08 674.413714 489.984 676.169143 479.451429 682.605714L458.971429 618.788571C469.504 616.448 477.696 614.107429 489.984 610.011429 533.906286 594.212571 593.590857 561.993143 645.12 526.299429Z" p-id="6314" fill="#ffffff"></path></svg>