<svg width="199" height="201" viewBox="0 0 199 201" fill="none" xmlns="http://www.w3.org/2000/svg">
<path fill-rule="evenodd" clip-rule="evenodd" d="M14.0697 97.5C15.9019 51.6192 53.6285 15 99.8835 15C134.588 15 164.504 35.6129 178.051 65.3162L191.42 62.4116V18.5H177.42V37.9552C159.111 15.4135 131.185 1 99.8835 1C44.7112 1 0 45.778 0 100.997C0 156.215 44.7106 201 99.8835 201C142.582 201 178.999 174.178 193.294 136.482L180.203 131.518C167.9 163.964 136.566 187 99.8835 187C56.0097 187 19.8077 154.048 14.6341 111.5H63L69.6333 106.736L77.0237 84.8111L91.2115 141.208L104.705 141.511L116.133 103.418L118.239 107.63L124.5 111.5H163V97.5H128.826L120.761 81.3695L107.795 82.4886L98.5927 113.164L84.7885 58.2922L71.3667 57.7641L57.9726 97.5H14.0697Z" fill="white"/>
</svg>
